ISO-10303-21;
HEADER;
/* Generated by software containing ST-Developer
 * from STEP Tools, Inc. (www.steptools.com) 
 */
/* OPTION: using custom schema-name function */

FILE_DESCRIPTION(
/* description */ (''),
/* implementation_level */ '2;1');

FILE_NAME(
/* name */ 'ClockWallHandler',
/* time_stamp */ '2026-06-20T22:07:40+03:00',
/* author */ (''),
/* organization */ (''),
/* preprocessor_version */ 'ST-DEVELOPER v19.2',
/* originating_system */ 'Rhino 8.32',
/* authorisation */ '');

FILE_SCHEMA (('CONFIG_CONTROL_DESIGN'));
ENDSEC;

DATA;
#10=SHAPE_REPRESENTATION_RELATIONSHIP('','',#436,#12);
#11=MANIFOLD_SOLID_BREP('brep_1',#13);
#12=ADVANCED_BREP_SHAPE_REPRESENTATION('brep_rep_0',(#11,#478),#435);
#13=CLOSED_SHELL('',(#20,#21,#22,#23,#24,#25,#26,#27,#28,#29,#30,#31,#32,
#33,#34,#35,#36,#37,#38,#39));
#14=FACE_BOUND('',#64,.T.);
#15=FACE_BOUND('',#65,.T.);
#16=FACE_BOUND('',#70,.T.);
#17=FACE_BOUND('',#71,.T.);
#18=FACE_BOUND('',#76,.T.);
#19=FACE_BOUND('',#79,.T.);
#20=ADVANCED_FACE('',(#40),#340,.T.);
#21=ADVANCED_FACE('',(#41),#330,.T.);
#22=ADVANCED_FACE('',(#42),#331,.T.);
#23=ADVANCED_FACE('',(#43,#14,#15),#332,.T.);
#24=ADVANCED_FACE('',(#44),#333,.T.);
#25=ADVANCED_FACE('',(#45),#334,.T.);
#26=ADVANCED_FACE('',(#46),#341,.T.);
#27=ADVANCED_FACE('',(#47,#16,#17),#335,.T.);
#28=ADVANCED_FACE('',(#48),#336,.T.);
#29=ADVANCED_FACE('',(#49),#337,.T.);
#30=ADVANCED_FACE('',(#50),#342,.F.);
#31=ADVANCED_FACE('',(#51,#18),#338,.T.);
#32=ADVANCED_FACE('',(#52),#343,.F.);
#33=ADVANCED_FACE('',(#53,#19),#339,.T.);
#34=ADVANCED_FACE('',(#54),#344,.F.);
#35=ADVANCED_FACE('',(#55),#345,.F.);
#36=ADVANCED_FACE('',(#56),#346,.F.);
#37=ADVANCED_FACE('',(#57),#347,.F.);
#38=ADVANCED_FACE('',(#58),#348,.F.);
#39=ADVANCED_FACE('',(#59),#349,.F.);
#40=FACE_OUTER_BOUND('',#60,.T.);
#41=FACE_OUTER_BOUND('',#61,.T.);
#42=FACE_OUTER_BOUND('',#62,.T.);
#43=FACE_OUTER_BOUND('',#63,.T.);
#44=FACE_OUTER_BOUND('',#66,.T.);
#45=FACE_OUTER_BOUND('',#67,.T.);
#46=FACE_OUTER_BOUND('',#68,.T.);
#47=FACE_OUTER_BOUND('',#69,.T.);
#48=FACE_OUTER_BOUND('',#72,.T.);
#49=FACE_OUTER_BOUND('',#73,.T.);
#50=FACE_OUTER_BOUND('',#74,.T.);
#51=FACE_OUTER_BOUND('',#75,.T.);
#52=FACE_OUTER_BOUND('',#77,.T.);
#53=FACE_OUTER_BOUND('',#78,.T.);
#54=FACE_OUTER_BOUND('',#80,.T.);
#55=FACE_OUTER_BOUND('',#81,.T.);
#56=FACE_OUTER_BOUND('',#82,.T.);
#57=FACE_OUTER_BOUND('',#83,.T.);
#58=FACE_OUTER_BOUND('',#84,.T.);
#59=FACE_OUTER_BOUND('',#85,.T.);
#60=EDGE_LOOP('',(#86,#87,#88,#89));
#61=EDGE_LOOP('',(#90,#91,#92,#93));
#62=EDGE_LOOP('',(#94,#95,#96,#97));
#63=EDGE_LOOP('',(#98,#99,#100,#101));
#64=EDGE_LOOP('',(#102,#103));
#65=EDGE_LOOP('',(#104,#105));
#66=EDGE_LOOP('',(#106,#107,#108,#109));
#67=EDGE_LOOP('',(#110,#111,#112,#113));
#68=EDGE_LOOP('',(#114,#115,#116,#117));
#69=EDGE_LOOP('',(#118,#119,#120,#121));
#70=EDGE_LOOP('',(#122,#123));
#71=EDGE_LOOP('',(#124,#125));
#72=EDGE_LOOP('',(#126,#127,#128,#129,#130,#131,#132,#133));
#73=EDGE_LOOP('',(#134,#135,#136,#137,#138,#139,#140,#141));
#74=EDGE_LOOP('',(#142,#143,#144,#145));
#75=EDGE_LOOP('',(#146,#147));
#76=EDGE_LOOP('',(#148,#149));
#77=EDGE_LOOP('',(#150,#151,#152,#153));
#78=EDGE_LOOP('',(#154,#155));
#79=EDGE_LOOP('',(#156,#157));
#80=EDGE_LOOP('',(#158,#159,#160,#161));
#81=EDGE_LOOP('',(#162,#163,#164,#165));
#82=EDGE_LOOP('',(#166,#167,#168,#169));
#83=EDGE_LOOP('',(#170,#171,#172,#173));
#84=EDGE_LOOP('',(#174,#175,#176,#177));
#85=EDGE_LOOP('',(#178,#179,#180,#181));
#86=ORIENTED_EDGE('',*,*,#182,.T.);
#87=ORIENTED_EDGE('',*,*,#183,.T.);
#88=ORIENTED_EDGE('',*,*,#184,.F.);
#89=ORIENTED_EDGE('',*,*,#185,.F.);
#90=ORIENTED_EDGE('',*,*,#186,.T.);
#91=ORIENTED_EDGE('',*,*,#187,.T.);
#92=ORIENTED_EDGE('',*,*,#188,.F.);
#93=ORIENTED_EDGE('',*,*,#183,.F.);
#94=ORIENTED_EDGE('',*,*,#189,.T.);
#95=ORIENTED_EDGE('',*,*,#190,.T.);
#96=ORIENTED_EDGE('',*,*,#191,.F.);
#97=ORIENTED_EDGE('',*,*,#187,.F.);
#98=ORIENTED_EDGE('',*,*,#192,.T.);
#99=ORIENTED_EDGE('',*,*,#193,.T.);
#100=ORIENTED_EDGE('',*,*,#194,.F.);
#101=ORIENTED_EDGE('',*,*,#190,.F.);
#102=ORIENTED_EDGE('',*,*,#212,.T.);
#103=ORIENTED_EDGE('',*,*,#225,.T.);
#104=ORIENTED_EDGE('',*,*,#215,.T.);
#105=ORIENTED_EDGE('',*,*,#228,.T.);
#106=ORIENTED_EDGE('',*,*,#195,.T.);
#107=ORIENTED_EDGE('',*,*,#196,.T.);
#108=ORIENTED_EDGE('',*,*,#197,.F.);
#109=ORIENTED_EDGE('',*,*,#193,.F.);
#110=ORIENTED_EDGE('',*,*,#198,.T.);
#111=ORIENTED_EDGE('',*,*,#199,.T.);
#112=ORIENTED_EDGE('',*,*,#200,.F.);
#113=ORIENTED_EDGE('',*,*,#196,.F.);
#114=ORIENTED_EDGE('',*,*,#201,.T.);
#115=ORIENTED_EDGE('',*,*,#202,.T.);
#116=ORIENTED_EDGE('',*,*,#203,.F.);
#117=ORIENTED_EDGE('',*,*,#199,.F.);
#118=ORIENTED_EDGE('',*,*,#204,.T.);
#119=ORIENTED_EDGE('',*,*,#185,.T.);
#120=ORIENTED_EDGE('',*,*,#205,.F.);
#121=ORIENTED_EDGE('',*,*,#202,.F.);
#122=ORIENTED_EDGE('',*,*,#220,.F.);
#123=ORIENTED_EDGE('',*,*,#208,.F.);
#124=ORIENTED_EDGE('',*,*,#223,.F.);
#125=ORIENTED_EDGE('',*,*,#211,.F.);
#126=ORIENTED_EDGE('',*,*,#204,.F.);
#127=ORIENTED_EDGE('',*,*,#201,.F.);
#128=ORIENTED_EDGE('',*,*,#198,.F.);
#129=ORIENTED_EDGE('',*,*,#195,.F.);
#130=ORIENTED_EDGE('',*,*,#192,.F.);
#131=ORIENTED_EDGE('',*,*,#189,.F.);
#132=ORIENTED_EDGE('',*,*,#186,.F.);
#133=ORIENTED_EDGE('',*,*,#182,.F.);
#134=ORIENTED_EDGE('',*,*,#184,.T.);
#135=ORIENTED_EDGE('',*,*,#188,.T.);
#136=ORIENTED_EDGE('',*,*,#191,.T.);
#137=ORIENTED_EDGE('',*,*,#194,.T.);
#138=ORIENTED_EDGE('',*,*,#197,.T.);
#139=ORIENTED_EDGE('',*,*,#200,.T.);
#140=ORIENTED_EDGE('',*,*,#203,.T.);
#141=ORIENTED_EDGE('',*,*,#205,.T.);
#142=ORIENTED_EDGE('',*,*,#206,.F.);
#143=ORIENTED_EDGE('',*,*,#207,.T.);
#144=ORIENTED_EDGE('',*,*,#208,.T.);
#145=ORIENTED_EDGE('',*,*,#218,.F.);
#146=ORIENTED_EDGE('',*,*,#206,.T.);
#147=ORIENTED_EDGE('',*,*,#219,.T.);
#148=ORIENTED_EDGE('',*,*,#214,.T.);
#149=ORIENTED_EDGE('',*,*,#226,.T.);
#150=ORIENTED_EDGE('',*,*,#209,.F.);
#151=ORIENTED_EDGE('',*,*,#210,.T.);
#152=ORIENTED_EDGE('',*,*,#211,.T.);
#153=ORIENTED_EDGE('',*,*,#221,.F.);
#154=ORIENTED_EDGE('',*,*,#209,.T.);
#155=ORIENTED_EDGE('',*,*,#222,.T.);
#156=ORIENTED_EDGE('',*,*,#217,.T.);
#157=ORIENTED_EDGE('',*,*,#229,.T.);
#158=ORIENTED_EDGE('',*,*,#212,.F.);
#159=ORIENTED_EDGE('',*,*,#213,.T.);
#160=ORIENTED_EDGE('',*,*,#226,.F.);
#161=ORIENTED_EDGE('',*,*,#224,.F.);
#162=ORIENTED_EDGE('',*,*,#215,.F.);
#163=ORIENTED_EDGE('',*,*,#216,.T.);
#164=ORIENTED_EDGE('',*,*,#229,.F.);
#165=ORIENTED_EDGE('',*,*,#227,.F.);
#166=ORIENTED_EDGE('',*,*,#218,.T.);
#167=ORIENTED_EDGE('',*,*,#220,.T.);
#168=ORIENTED_EDGE('',*,*,#207,.F.);
#169=ORIENTED_EDGE('',*,*,#219,.F.);
#170=ORIENTED_EDGE('',*,*,#221,.T.);
#171=ORIENTED_EDGE('',*,*,#223,.T.);
#172=ORIENTED_EDGE('',*,*,#210,.F.);
#173=ORIENTED_EDGE('',*,*,#222,.F.);
#174=ORIENTED_EDGE('',*,*,#224,.T.);
#175=ORIENTED_EDGE('',*,*,#214,.F.);
#176=ORIENTED_EDGE('',*,*,#213,.F.);
#177=ORIENTED_EDGE('',*,*,#225,.F.);
#178=ORIENTED_EDGE('',*,*,#227,.T.);
#179=ORIENTED_EDGE('',*,*,#217,.F.);
#180=ORIENTED_EDGE('',*,*,#216,.F.);
#181=ORIENTED_EDGE('',*,*,#228,.F.);
#182=EDGE_CURVE('',#298,#299,#258,.T.);
#183=EDGE_CURVE('',#299,#300,#247,.T.);
#184=EDGE_CURVE('',#301,#300,#259,.T.);
#185=EDGE_CURVE('',#298,#301,#248,.T.);
#186=EDGE_CURVE('',#299,#302,#230,.T.);
#187=EDGE_CURVE('',#302,#303,#231,.T.);
#188=EDGE_CURVE('',#300,#303,#232,.T.);
#189=EDGE_CURVE('',#302,#304,#233,.T.);
#190=EDGE_CURVE('',#304,#305,#234,.T.);
#191=EDGE_CURVE('',#303,#305,#235,.T.);
#192=EDGE_CURVE('',#304,#306,#236,.T.);
#193=EDGE_CURVE('',#306,#307,#237,.T.);
#194=EDGE_CURVE('',#305,#307,#238,.T.);
#195=EDGE_CURVE('',#306,#308,#239,.T.);
#196=EDGE_CURVE('',#308,#309,#240,.T.);
#197=EDGE_CURVE('',#307,#309,#241,.T.);
#198=EDGE_CURVE('',#308,#310,#242,.T.);
#199=EDGE_CURVE('',#310,#311,#243,.T.);
#200=EDGE_CURVE('',#309,#311,#244,.T.);
#201=EDGE_CURVE('',#310,#312,#260,.T.);
#202=EDGE_CURVE('',#312,#313,#249,.T.);
#203=EDGE_CURVE('',#311,#313,#261,.T.);
#204=EDGE_CURVE('',#312,#298,#245,.T.);
#205=EDGE_CURVE('',#313,#301,#246,.T.);
#206=EDGE_CURVE('',#314,#322,#262,.T.);
#207=EDGE_CURVE('',#314,#315,#250,.T.);
#208=EDGE_CURVE('',#315,#323,#263,.T.);
#209=EDGE_CURVE('',#316,#324,#264,.T.);
#210=EDGE_CURVE('',#316,#317,#251,.T.);
#211=EDGE_CURVE('',#317,#325,#265,.T.);
#212=EDGE_CURVE('',#318,#326,#266,.T.);
#213=EDGE_CURVE('',#318,#319,#252,.T.);
#214=EDGE_CURVE('',#319,#327,#267,.T.);
#215=EDGE_CURVE('',#320,#328,#268,.T.);
#216=EDGE_CURVE('',#320,#321,#253,.T.);
#217=EDGE_CURVE('',#321,#329,#269,.T.);
#218=EDGE_CURVE('',#322,#323,#254,.T.);
#219=EDGE_CURVE('',#322,#314,#270,.T.);
#220=EDGE_CURVE('',#323,#315,#271,.T.);
#221=EDGE_CURVE('',#324,#325,#255,.T.);
#222=EDGE_CURVE('',#324,#316,#272,.T.);
#223=EDGE_CURVE('',#325,#317,#273,.T.);
#224=EDGE_CURVE('',#326,#327,#256,.T.);
#225=EDGE_CURVE('',#326,#318,#274,.T.);
#226=EDGE_CURVE('',#327,#319,#275,.T.);
#227=EDGE_CURVE('',#328,#329,#257,.T.);
#228=EDGE_CURVE('',#328,#320,#276,.T.);
#229=EDGE_CURVE('',#329,#321,#277,.T.);
#230=B_SPLINE_CURVE_WITH_KNOTS('',1,(#606,#607),.UNSPECIFIED.,.F.,.F.,(2,
2),(36.9544444027264,43.8817979121026),.UNSPECIFIED.);
#231=B_SPLINE_CURVE_WITH_KNOTS('',1,(#608,#609),.UNSPECIFIED.,.F.,.F.,(2,
2),(0.,33.2),.UNSPECIFIED.);
#232=B_SPLINE_CURVE_WITH_KNOTS('',1,(#610,#611),.UNSPECIFIED.,.F.,.F.,(2,
2),(36.9544444027264,43.8817979121026),.UNSPECIFIED.);
#233=B_SPLINE_CURVE_WITH_KNOTS('',1,(#612,#613),.UNSPECIFIED.,.F.,.F.,(2,
2),(43.8817979121026,51.2115951182253),.UNSPECIFIED.);
#234=B_SPLINE_CURVE_WITH_KNOTS('',1,(#614,#615),.UNSPECIFIED.,.F.,.F.,(2,
2),(0.,33.2),.UNSPECIFIED.);
#235=B_SPLINE_CURVE_WITH_KNOTS('',1,(#616,#617),.UNSPECIFIED.,.F.,.F.,(2,
2),(43.8817979121026,51.2115951182253),.UNSPECIFIED.);
#236=B_SPLINE_CURVE_WITH_KNOTS('',1,(#618,#619),.UNSPECIFIED.,.F.,.F.,(2,
2),(51.2115951182253,76.4254305047106),.UNSPECIFIED.);
#237=B_SPLINE_CURVE_WITH_KNOTS('',1,(#620,#621),.UNSPECIFIED.,.F.,.F.,(2,
2),(0.,33.2),.UNSPECIFIED.);
#238=B_SPLINE_CURVE_WITH_KNOTS('',1,(#622,#623),.UNSPECIFIED.,.F.,.F.,(2,
2),(51.2115951182253,76.4254305047106),.UNSPECIFIED.);
#239=B_SPLINE_CURVE_WITH_KNOTS('',1,(#624,#625),.UNSPECIFIED.,.F.,.F.,(2,
2),(76.4254305047106,83.7552277108333),.UNSPECIFIED.);
#240=B_SPLINE_CURVE_WITH_KNOTS('',1,(#626,#627),.UNSPECIFIED.,.F.,.F.,(2,
2),(0.,33.2),.UNSPECIFIED.);
#241=B_SPLINE_CURVE_WITH_KNOTS('',1,(#628,#629),.UNSPECIFIED.,.F.,.F.,(2,
2),(76.4254305047106,83.7552277108333),.UNSPECIFIED.);
#242=B_SPLINE_CURVE_WITH_KNOTS('',1,(#630,#631),.UNSPECIFIED.,.F.,.F.,(2,
2),(83.7552277108333,90.6825812202095),.UNSPECIFIED.);
#243=B_SPLINE_CURVE_WITH_KNOTS('',1,(#632,#633),.UNSPECIFIED.,.F.,.F.,(2,
2),(0.,33.2),.UNSPECIFIED.);
#244=B_SPLINE_CURVE_WITH_KNOTS('',1,(#634,#635),.UNSPECIFIED.,.F.,.F.,(2,
2),(83.7552277108333,90.6825812202095),.UNSPECIFIED.);
#245=B_SPLINE_CURVE_WITH_KNOTS('',1,(#644,#645,#646,#647),.UNSPECIFIED.,
 .F.,.F.,(2,1,1,2),(92.9002791558017,97.6617346961261,122.875570082611,
127.637025622936),.UNSPECIFIED.);
#246=B_SPLINE_CURVE_WITH_KNOTS('',1,(#648,#649,#650,#651),.UNSPECIFIED.,
 .F.,.F.,(2,1,1,2),(92.9002791558017,97.6617346961261,122.875570082611,
127.637025622936),.UNSPECIFIED.);
#247=(
BOUNDED_CURVE()
B_SPLINE_CURVE(1,(#599,#600),.UNSPECIFIED.,.F.,.F.)
B_SPLINE_CURVE_WITH_KNOTS((2,2),(0.,33.2),.UNSPECIFIED.)
CURVE()
GEOMETRIC_REPRESENTATION_ITEM()
RATIONAL_B_SPLINE_CURVE((1.,1.))
REPRESENTATION_ITEM('')
);
#248=(
BOUNDED_CURVE()
B_SPLINE_CURVE(1,(#604,#605),.UNSPECIFIED.,.F.,.F.)
B_SPLINE_CURVE_WITH_KNOTS((2,2),(0.,33.2),.UNSPECIFIED.)
CURVE()
GEOMETRIC_REPRESENTATION_ITEM()
RATIONAL_B_SPLINE_CURVE((1.,1.))
REPRESENTATION_ITEM('')
);
#249=(
BOUNDED_CURVE()
B_SPLINE_CURVE(1,(#639,#640),.UNSPECIFIED.,.F.,.F.)
B_SPLINE_CURVE_WITH_KNOTS((2,2),(0.,33.2),.UNSPECIFIED.)
CURVE()
GEOMETRIC_REPRESENTATION_ITEM()
RATIONAL_B_SPLINE_CURVE((1.,1.))
REPRESENTATION_ITEM('')
);
#250=(
BOUNDED_CURVE()
B_SPLINE_CURVE(1,(#655,#656),.UNSPECIFIED.,.F.,.F.)
B_SPLINE_CURVE_WITH_KNOTS((2,2),(0.,30.),.UNSPECIFIED.)
CURVE()
GEOMETRIC_REPRESENTATION_ITEM()
RATIONAL_B_SPLINE_CURVE((1.,1.))
REPRESENTATION_ITEM('')
);
#251=(
BOUNDED_CURVE()
B_SPLINE_CURVE(1,(#663,#664),.UNSPECIFIED.,.F.,.F.)
B_SPLINE_CURVE_WITH_KNOTS((2,2),(0.,30.),.UNSPECIFIED.)
CURVE()
GEOMETRIC_REPRESENTATION_ITEM()
RATIONAL_B_SPLINE_CURVE((1.,1.))
REPRESENTATION_ITEM('')
);
#252=(
BOUNDED_CURVE()
B_SPLINE_CURVE(1,(#671,#672),.UNSPECIFIED.,.F.,.F.)
B_SPLINE_CURVE_WITH_KNOTS((2,2),(0.,1.29291197770825),.UNSPECIFIED.)
CURVE()
GEOMETRIC_REPRESENTATION_ITEM()
RATIONAL_B_SPLINE_CURVE((1.,1.))
REPRESENTATION_ITEM('')
);
#253=(
BOUNDED_CURVE()
B_SPLINE_CURVE(1,(#679,#680),.UNSPECIFIED.,.F.,.F.)
B_SPLINE_CURVE_WITH_KNOTS((2,2),(0.,1.29291197770825),.UNSPECIFIED.)
CURVE()
GEOMETRIC_REPRESENTATION_ITEM()
RATIONAL_B_SPLINE_CURVE((1.,1.))
REPRESENTATION_ITEM('')
);
#254=(
BOUNDED_CURVE()
B_SPLINE_CURVE(1,(#684,#685),.UNSPECIFIED.,.F.,.F.)
B_SPLINE_CURVE_WITH_KNOTS((2,2),(0.,30.),.UNSPECIFIED.)
CURVE()
GEOMETRIC_REPRESENTATION_ITEM()
RATIONAL_B_SPLINE_CURVE((1.,1.))
REPRESENTATION_ITEM('')
);
#255=(
BOUNDED_CURVE()
B_SPLINE_CURVE(1,(#692,#693),.UNSPECIFIED.,.F.,.F.)
B_SPLINE_CURVE_WITH_KNOTS((2,2),(0.,30.),.UNSPECIFIED.)
CURVE()
GEOMETRIC_REPRESENTATION_ITEM()
RATIONAL_B_SPLINE_CURVE((1.,1.))
REPRESENTATION_ITEM('')
);
#256=(
BOUNDED_CURVE()
B_SPLINE_CURVE(1,(#700,#701),.UNSPECIFIED.,.F.,.F.)
B_SPLINE_CURVE_WITH_KNOTS((2,2),(0.,1.29291197770817),.UNSPECIFIED.)
CURVE()
GEOMETRIC_REPRESENTATION_ITEM()
RATIONAL_B_SPLINE_CURVE((1.,1.))
REPRESENTATION_ITEM('')
);
#257=(
BOUNDED_CURVE()
B_SPLINE_CURVE(1,(#708,#709),.UNSPECIFIED.,.F.,.F.)
B_SPLINE_CURVE_WITH_KNOTS((2,2),(0.,1.29291197770817),.UNSPECIFIED.)
CURVE()
GEOMETRIC_REPRESENTATION_ITEM()
RATIONAL_B_SPLINE_CURVE((1.,1.))
REPRESENTATION_ITEM('')
);
#258=TRIMMED_CURVE($,#278,(#597),(#598),.T.,.CARTESIAN.);
#259=TRIMMED_CURVE($,#279,(#602),(#603),.T.,.CARTESIAN.);
#260=TRIMMED_CURVE($,#280,(#637),(#638),.T.,.CARTESIAN.);
#261=TRIMMED_CURVE($,#281,(#642),(#643),.T.,.CARTESIAN.);
#262=TRIMMED_CURVE($,#282,(#653),(#654),.T.,.CARTESIAN.);
#263=TRIMMED_CURVE($,#283,(#658),(#659),.T.,.CARTESIAN.);
#264=TRIMMED_CURVE($,#284,(#661),(#662),.T.,.CARTESIAN.);
#265=TRIMMED_CURVE($,#285,(#666),(#667),.T.,.CARTESIAN.);
#266=TRIMMED_CURVE($,#286,(#669),(#670),.T.,.CARTESIAN.);
#267=TRIMMED_CURVE($,#287,(#674),(#675),.T.,.CARTESIAN.);
#268=TRIMMED_CURVE($,#288,(#677),(#678),.T.,.CARTESIAN.);
#269=TRIMMED_CURVE($,#289,(#682),(#683),.T.,.CARTESIAN.);
#270=TRIMMED_CURVE($,#290,(#687),(#688),.T.,.CARTESIAN.);
#271=TRIMMED_CURVE($,#291,(#690),(#691),.T.,.CARTESIAN.);
#272=TRIMMED_CURVE($,#292,(#695),(#696),.T.,.CARTESIAN.);
#273=TRIMMED_CURVE($,#293,(#698),(#699),.T.,.CARTESIAN.);
#274=TRIMMED_CURVE($,#294,(#703),(#704),.T.,.CARTESIAN.);
#275=TRIMMED_CURVE($,#295,(#706),(#707),.T.,.CARTESIAN.);
#276=TRIMMED_CURVE($,#296,(#711),(#712),.T.,.CARTESIAN.);
#277=TRIMMED_CURVE($,#297,(#714),(#715),.T.,.CARTESIAN.);
#278=CIRCLE('',#458,0.999999999999545);
#279=CIRCLE('',#459,0.999999999999545);
#280=CIRCLE('',#460,0.999999999999914);
#281=CIRCLE('',#461,0.999999999999914);
#282=CIRCLE('',#462,5.00000000000003);
#283=CIRCLE('',#463,5.00000000000003);
#284=CIRCLE('',#464,4.99999999999995);
#285=CIRCLE('',#465,4.99999999999995);
#286=CIRCLE('',#466,1.99999999999978);
#287=CIRCLE('',#467,1.99999999999983);
#288=CIRCLE('',#468,1.99999999999978);
#289=CIRCLE('',#469,1.99999999999982);
#290=CIRCLE('',#470,4.99999999999997);
#291=CIRCLE('',#471,4.99999999999997);
#292=CIRCLE('',#472,5.0000000000001);
#293=CIRCLE('',#473,5.0000000000001);
#294=CIRCLE('',#474,2.00000000000009);
#295=CIRCLE('',#475,2.00000000000014);
#296=CIRCLE('',#476,2.00000000000009);
#297=CIRCLE('',#477,2.00000000000014);
#298=VERTEX_POINT('',#564);
#299=VERTEX_POINT('',#565);
#300=VERTEX_POINT('',#566);
#301=VERTEX_POINT('',#567);
#302=VERTEX_POINT('',#568);
#303=VERTEX_POINT('',#569);
#304=VERTEX_POINT('',#570);
#305=VERTEX_POINT('',#571);
#306=VERTEX_POINT('',#572);
#307=VERTEX_POINT('',#573);
#308=VERTEX_POINT('',#574);
#309=VERTEX_POINT('',#575);
#310=VERTEX_POINT('',#576);
#311=VERTEX_POINT('',#577);
#312=VERTEX_POINT('',#578);
#313=VERTEX_POINT('',#579);
#314=VERTEX_POINT('',#580);
#315=VERTEX_POINT('',#581);
#316=VERTEX_POINT('',#582);
#317=VERTEX_POINT('',#583);
#318=VERTEX_POINT('',#584);
#319=VERTEX_POINT('',#585);
#320=VERTEX_POINT('',#586);
#321=VERTEX_POINT('',#587);
#322=VERTEX_POINT('',#588);
#323=VERTEX_POINT('',#589);
#324=VERTEX_POINT('',#590);
#325=VERTEX_POINT('',#591);
#326=VERTEX_POINT('',#592);
#327=VERTEX_POINT('',#593);
#328=VERTEX_POINT('',#594);
#329=VERTEX_POINT('',#595);
#330=PLANE('',#439);
#331=PLANE('',#440);
#332=PLANE('',#441);
#333=PLANE('',#442);
#334=PLANE('',#443);
#335=PLANE('',#445);
#336=PLANE('',#446);
#337=PLANE('',#447);
#338=PLANE('',#449);
#339=PLANE('',#451);
#340=CYLINDRICAL_SURFACE('',#438,0.999999999999545);
#341=CYLINDRICAL_SURFACE('',#444,0.999999999999914);
#342=CYLINDRICAL_SURFACE('',#448,5.00000000000003);
#343=CYLINDRICAL_SURFACE('',#450,4.99999999999995);
#344=CYLINDRICAL_SURFACE('',#452,1.99999999999978);
#345=CYLINDRICAL_SURFACE('',#453,1.99999999999978);
#346=CYLINDRICAL_SURFACE('',#454,4.99999999999997);
#347=CYLINDRICAL_SURFACE('',#455,5.0000000000001);
#348=CYLINDRICAL_SURFACE('',#456,2.00000000000009);
#349=CYLINDRICAL_SURFACE('',#457,2.00000000000009);
#350=SHAPE_DEFINITION_REPRESENTATION(#351,#436);
#351=PRODUCT_DEFINITION_SHAPE($,$,#353);
#352=PRODUCT_DEFINITION_CONTEXT('3D Mechanical Parts',#425,'design');
#353=PRODUCT_DEFINITION('A','First version',#395,#352);
#354=DATE_TIME_ROLE('classification_date');
#355=DATE_TIME_ROLE('creation_date');
#356=APPLIED_DATE_AND_TIME_ASSIGNMENT(#380,#354,(#359));
#357=APPLIED_DATE_AND_TIME_ASSIGNMENT(#382,#355,(#353));
#358=SECURITY_CLASSIFICATION_LEVEL('unclassified');
#359=SECURITY_CLASSIFICATION('A','Security for version',#358);
#360=APPLIED_SECURITY_CLASSIFICATION_ASSIGNMENT(#359,(#395));
#361=APPROVAL_ROLE('Version approval');
#362=APPROVAL_ROLE('Version Security approval');
#363=APPROVAL_ROLE('Definition approval');
#364=APPROVAL_PERSON_ORGANIZATION(#413,#389,#361);
#365=APPROVAL_PERSON_ORGANIZATION(#414,#390,#362);
#366=APPROVAL_PERSON_ORGANIZATION(#417,#391,#363);
#367=COORDINATED_UNIVERSAL_TIME_OFFSET(5,0,.BEHIND.);
#368=LOCAL_TIME(0,0,0.,#367);
#369=LOCAL_TIME(0,0,0.,#367);
#370=LOCAL_TIME(0,0,0.,#367);
#371=LOCAL_TIME(0,0,0.,#367);
#372=LOCAL_TIME(0,0,0.,#367);
#373=CALENDAR_DATE(1999,1,1);
#374=CALENDAR_DATE(1999,1,1);
#375=CALENDAR_DATE(1999,1,1);
#376=CALENDAR_DATE(1999,1,1);
#377=CALENDAR_DATE(1999,1,1);
#378=DATE_AND_TIME(#373,#368);
#379=DATE_AND_TIME(#374,#369);
#380=DATE_AND_TIME(#375,#370);
#381=DATE_AND_TIME(#376,#371);
#382=DATE_AND_TIME(#377,#372);
#383=APPROVAL_DATE_TIME(#378,#389);
#384=APPROVAL_DATE_TIME(#379,#390);
#385=APPROVAL_DATE_TIME(#381,#391);
#386=APPROVAL_STATUS('not_yet_approved');
#387=APPROVAL_STATUS('not_yet_approved');
#388=APPROVAL_STATUS('approved');
#389=APPROVAL(#386,'Version approval');
#390=APPROVAL(#387,'Version Security approval');
#391=APPROVAL(#388,'Definition approval');
#392=APPLIED_APPROVAL_ASSIGNMENT(#389,(#395));
#393=APPLIED_APPROVAL_ASSIGNMENT(#390,(#359));
#394=APPLIED_APPROVAL_ASSIGNMENT(#391,(#353));
#395=PRODUCT_DEFINITION_FORMATION_WITH_SPECIFIED_SOURCE('A',
'First version',#427,.MADE.);
#396=PERSON_AND_ORGANIZATION_ROLE('design_owner');
#397=PERSON_AND_ORGANIZATION_ROLE('creator');
#398=PERSON_AND_ORGANIZATION_ROLE('design_supplier');
#399=PERSON_AND_ORGANIZATION_ROLE('classification_officer');
#400=PERSON_AND_ORGANIZATION_ROLE('creator');
#401=ORGANIZATION('STI','lab','lab');
#402=ORGANIZATION('STI','unknown','unknown');
#403=ORGANIZATION('STI','unknown','unknown');
#404=ORGANIZATION('STI','unknown','unknown');
#405=ORGANIZATION('STI','unknown','unknown');
#406=ORGANIZATION('STI','unknown','unknown');
#407=ORGANIZATION('STI','unknown','unknown');
#408=PERSON('1','Box','vc60',$,$,$);
#409=PERSON('2','last','first',$,$,$);
#410=PERSON('3','President','Mr.',$,$,$);
#411=PERSON_AND_ORGANIZATION(#408,#401);
#412=PERSON_AND_ORGANIZATION(#409,#402);
#413=PERSON_AND_ORGANIZATION(#410,#403);
#414=PERSON_AND_ORGANIZATION(#410,#404);
#415=PERSON_AND_ORGANIZATION(#410,#405);
#416=PERSON_AND_ORGANIZATION(#409,#406);
#417=PERSON_AND_ORGANIZATION(#410,#407);
#418=APPLIED_PERSON_AND_ORGANIZATION_ASSIGNMENT(#411,#396,(#427));
#419=APPLIED_PERSON_AND_ORGANIZATION_ASSIGNMENT(#412,#397,(#395));
#420=APPLIED_PERSON_AND_ORGANIZATION_ASSIGNMENT(#412,#398,(#395));
#421=APPLIED_PERSON_AND_ORGANIZATION_ASSIGNMENT(#415,#399,(#359));
#422=APPLIED_PERSON_AND_ORGANIZATION_ASSIGNMENT(#416,#400,(#353));
#423=PRODUCT_RELATED_PRODUCT_CATEGORY('detail','detail',(#427));
#424=APPLICATION_PROTOCOL_DEFINITION('International Standard',
'config_control_design',1994,#425);
#425=APPLICATION_CONTEXT(
'configuration controlled 3d designs of mechanical parts and assemblie
s');
#426=PRODUCT_CONTEXT('3D Mechanical Parts',#425,'mechanical');
#427=PRODUCT('Document','Document','',(#426));
#428=(
LENGTH_UNIT()
NAMED_UNIT(*)
SI_UNIT(.MILLI.,.METRE.)
);
#429=(
NAMED_UNIT(*)
PLANE_ANGLE_UNIT()
SI_UNIT($,.RADIAN.)
);
#430=DIMENSIONAL_EXPONENTS(0.,0.,0.,0.,0.,0.,0.);
#431=PLANE_ANGLE_MEASURE_WITH_UNIT(PLANE_ANGLE_MEASURE(0.01745329252),#429);
#432=(
CONVERSION_BASED_UNIT('DEGREES',#431)
NAMED_UNIT(#430)
PLANE_ANGLE_UNIT()
);
#433=(
NAMED_UNIT(*)
SI_UNIT($,.STERADIAN.)
SOLID_ANGLE_UNIT()
);
#434=UNCERTAINTY_MEASURE_WITH_UNIT(LENGTH_MEASURE(0.01),#428,
'DISTANCE_ACCURACY_VALUE',
'Maximum model space distance between geometric entities at asserted c
onnectivities');
#435=(
GEOMETRIC_REPRESENTATION_CONTEXT(3)
GLOBAL_UNCERTAINTY_ASSIGNED_CONTEXT((#434))
GLOBAL_UNIT_ASSIGNED_CONTEXT((#433,#432,#428))
REPRESENTATION_CONTEXT('ID1','3D')
);
#436=SHAPE_REPRESENTATION('Document',(#437,#478),#435);
#437=AXIS2_PLACEMENT_3D($,#543,#479,#480);
#438=AXIS2_PLACEMENT_3D('',#544,#481,$);
#439=AXIS2_PLACEMENT_3D('',#545,#482,$);
#440=AXIS2_PLACEMENT_3D('',#546,#483,$);
#441=AXIS2_PLACEMENT_3D('',#547,#484,$);
#442=AXIS2_PLACEMENT_3D('',#548,#485,$);
#443=AXIS2_PLACEMENT_3D('',#549,#486,$);
#444=AXIS2_PLACEMENT_3D('',#550,#487,$);
#445=AXIS2_PLACEMENT_3D('',#551,#488,$);
#446=AXIS2_PLACEMENT_3D('',#552,#489,$);
#447=AXIS2_PLACEMENT_3D('',#553,#490,$);
#448=AXIS2_PLACEMENT_3D('',#554,#491,$);
#449=AXIS2_PLACEMENT_3D('',#555,#492,$);
#450=AXIS2_PLACEMENT_3D('',#556,#493,$);
#451=AXIS2_PLACEMENT_3D('',#557,#494,$);
#452=AXIS2_PLACEMENT_3D('',#558,#495,$);
#453=AXIS2_PLACEMENT_3D('',#559,#496,$);
#454=AXIS2_PLACEMENT_3D('',#560,#497,$);
#455=AXIS2_PLACEMENT_3D('',#561,#498,$);
#456=AXIS2_PLACEMENT_3D('',#562,#499,$);
#457=AXIS2_PLACEMENT_3D('',#563,#500,$);
#458=AXIS2_PLACEMENT_3D($,#596,#501,#502);
#459=AXIS2_PLACEMENT_3D($,#601,#503,#504);
#460=AXIS2_PLACEMENT_3D($,#636,#505,#506);
#461=AXIS2_PLACEMENT_3D($,#641,#507,#508);
#462=AXIS2_PLACEMENT_3D($,#652,#509,#510);
#463=AXIS2_PLACEMENT_3D($,#657,#511,#512);
#464=AXIS2_PLACEMENT_3D($,#660,#513,#514);
#465=AXIS2_PLACEMENT_3D($,#665,#515,#516);
#466=AXIS2_PLACEMENT_3D($,#668,#517,#518);
#467=AXIS2_PLACEMENT_3D($,#673,#519,#520);
#468=AXIS2_PLACEMENT_3D($,#676,#521,#522);
#469=AXIS2_PLACEMENT_3D($,#681,#523,#524);
#470=AXIS2_PLACEMENT_3D($,#686,#525,#526);
#471=AXIS2_PLACEMENT_3D($,#689,#527,#528);
#472=AXIS2_PLACEMENT_3D($,#694,#529,#530);
#473=AXIS2_PLACEMENT_3D($,#697,#531,#532);
#474=AXIS2_PLACEMENT_3D($,#702,#533,#534);
#475=AXIS2_PLACEMENT_3D($,#705,#535,#536);
#476=AXIS2_PLACEMENT_3D($,#710,#537,#538);
#477=AXIS2_PLACEMENT_3D($,#713,#539,#540);
#478=AXIS2_PLACEMENT_3D($,#716,#541,#542);
#479=DIRECTION('',(0.,0.,1.));
#480=DIRECTION('',(1.,0.,0.));
#481=DIRECTION('',(0.,0.,1.));
#482=DIRECTION('',(-0.602716925743638,0.797955078574063,-4.03620998632424E-16));
#483=DIRECTION('',(0.,1.,0.));
#484=DIRECTION('',(-1.,0.,0.));
#485=DIRECTION('',(0.,-1.,0.));
#486=DIRECTION('',(-0.602716925743548,-0.79795507857413,2.57953843728935E-15));
#487=DIRECTION('',(0.,0.,1.));
#488=DIRECTION('',(1.,0.,0.));
#489=DIRECTION('',(0.,0.,-1.));
#490=DIRECTION('',(0.,0.,1.));
#491=DIRECTION('',(1.,0.,0.));
#492=DIRECTION('',(1.,0.,0.));
#493=DIRECTION('',(1.,0.,0.));
#494=DIRECTION('',(1.,0.,0.));
#495=DIRECTION('',(1.,0.,0.));
#496=DIRECTION('',(1.,0.,0.));
#497=DIRECTION('',(1.,0.,0.));
#498=DIRECTION('',(1.,0.,0.));
#499=DIRECTION('',(1.,0.,0.));
#500=DIRECTION('',(1.,0.,0.));
#501=DIRECTION('',(0.,0.,1.));
#502=DIRECTION('',(1.,-9.09494701773342E-13,0.));
#503=DIRECTION('',(0.,0.,1.));
#504=DIRECTION('',(1.,-9.09494701773342E-13,0.));
#505=DIRECTION('',(0.,0.,1.));
#506=DIRECTION('',(-0.602716925743659,-0.797955078574046,0.));
#507=DIRECTION('',(0.,0.,1.));
#508=DIRECTION('',(-0.602716925743659,-0.797955078574046,0.));
#509=DIRECTION('',(1.,0.,0.));
#510=DIRECTION('',(0.,0.,-1.));
#511=DIRECTION('',(1.,0.,0.));
#512=DIRECTION('',(0.,0.,-1.));
#513=DIRECTION('',(1.,0.,0.));
#514=DIRECTION('',(0.,4.54747350886469E-14,-1.));
#515=DIRECTION('',(1.,0.,0.));
#516=DIRECTION('',(0.,4.54747350886469E-14,-1.));
#517=DIRECTION('',(1.,0.,0.));
#518=DIRECTION('',(0.,0.712325066937489,-0.701849698306198));
#519=DIRECTION('',(-1.,0.,0.));
#520=DIRECTION('',(0.,0.712325066937472,-0.701849698306216));
#521=DIRECTION('',(1.,0.,0.));
#522=DIRECTION('',(0.,0.712325066937489,-0.701849698306198));
#523=DIRECTION('',(-1.,0.,0.));
#524=DIRECTION('',(0.,0.712325066937474,-0.701849698306213));
#525=DIRECTION('',(1.,0.,0.));
#526=DIRECTION('',(0.,0.,1.));
#527=DIRECTION('',(1.,0.,0.));
#528=DIRECTION('',(0.,0.,1.));
#529=DIRECTION('',(1.,0.,0.));
#530=DIRECTION('',(0.,0.,1.));
#531=DIRECTION('',(1.,0.,0.));
#532=DIRECTION('',(0.,0.,1.));
#533=DIRECTION('',(1.,0.,0.));
#534=DIRECTION('',(0.,-0.712325066937605,0.701849698306081));
#535=DIRECTION('',(-1.,0.,0.));
#536=DIRECTION('',(0.,-0.712325066937587,0.701849698306099));
#537=DIRECTION('',(1.,0.,0.));
#538=DIRECTION('',(0.,-0.712325066937604,0.701849698306082));
#539=DIRECTION('',(-1.,0.,0.));
#540=DIRECTION('',(0.,-0.712325066937589,0.701849698306097));
#541=DIRECTION('',(0.,0.,1.));
#542=DIRECTION('',(1.,0.,0.));
#543=CARTESIAN_POINT('',(0.,0.,0.));
#544=CARTESIAN_POINT('',(-2680.5304440036,1620.53017299689,31.6));
#545=CARTESIAN_POINT('',(-2681.13316092934,1621.32812807546,8.3));
#546=CARTESIAN_POINT('',(-2688.49343197491,1615.76871745656,8.3));
#547=CARTESIAN_POINT('',(-2695.82322918104,1615.76871745656,8.3));
#548=CARTESIAN_POINT('',(-2695.82322918104,1575.76871745656,8.3));
#549=CARTESIAN_POINT('',(-2688.49343197491,1575.76871745656,8.3));
#550=CARTESIAN_POINT('',(-2680.53044400359,1571.00726191624,31.6));
#551=CARTESIAN_POINT('',(-2679.53044400359,1571.00726191624,8.3));
#552=CARTESIAN_POINT('',(-2697.85982732822,1563.56689803116,8.3));
#553=CARTESIAN_POINT('',(-2697.85982732822,1563.56689803116,54.9));
#554=CARTESIAN_POINT('',(-2687.03031720333,1595.76871745656,43.3204169615145));
#555=CARTESIAN_POINT('',(-2694.53031720333,1589.51871745656,49.5704169615145));
#556=CARTESIAN_POINT('',(-2687.03031720333,1595.76871745656,23.1993391913443));
#557=CARTESIAN_POINT('',(-2694.53031720333,1589.51871745656,29.4493391913443));
#558=CARTESIAN_POINT('',(-2680.82322918104,1595.98069270123,43.341163174595));
#559=CARTESIAN_POINT('',(-2680.82322918104,1595.98069270123,23.199133134027));
#560=CARTESIAN_POINT('',(-2687.03031720333,1595.76871745656,43.3204169615145));
#561=CARTESIAN_POINT('',(-2687.03031720333,1595.76871745656,23.1993391913442));
#562=CARTESIAN_POINT('',(-2680.82322918104,1595.98069270123,43.341163174595));
#563=CARTESIAN_POINT('',(-2680.82322918104,1595.98069270123,23.199133134027));
#564=CARTESIAN_POINT('',(-2679.5304440036,1620.53017299689,8.3));
#565=CARTESIAN_POINT('',(-2681.13316092934,1621.32812807546,8.3));
#566=CARTESIAN_POINT('',(-2681.13316092934,1621.32812807546,54.9));
#567=CARTESIAN_POINT('',(-2679.5304440036,1620.53017299689,54.9));
#568=CARTESIAN_POINT('',(-2688.49343197491,1615.76871745656,8.3));
#569=CARTESIAN_POINT('',(-2688.49343197491,1615.76871745656,54.9));
#570=CARTESIAN_POINT('',(-2695.82322918104,1615.76871745656,8.3));
#571=CARTESIAN_POINT('',(-2695.82322918104,1615.76871745656,54.9));
#572=CARTESIAN_POINT('',(-2695.82322918104,1575.76871745656,8.3));
#573=CARTESIAN_POINT('',(-2695.82322918104,1575.76871745656,54.9));
#574=CARTESIAN_POINT('',(-2688.49343197491,1575.76871745656,8.3));
#575=CARTESIAN_POINT('',(-2688.49343197491,1575.76871745656,54.9));
#576=CARTESIAN_POINT('',(-2681.13316092934,1570.20930683766,8.3));
#577=CARTESIAN_POINT('',(-2681.13316092934,1570.20930683766,54.9));
#578=CARTESIAN_POINT('',(-2679.53044400359,1571.00726191624,8.3));
#579=CARTESIAN_POINT('',(-2679.53044400359,1571.00726191624,54.9));
#580=CARTESIAN_POINT('',(-2694.53031720333,1595.76871745656,38.3204169615145));
#581=CARTESIAN_POINT('',(-2679.53031720333,1595.76871745656,38.3204169615145));
#582=CARTESIAN_POINT('',(-2694.53031720333,1595.76871745656,18.1993391913443));
#583=CARTESIAN_POINT('',(-2679.53031720333,1595.76871745656,18.1993391913443));
#584=CARTESIAN_POINT('',(-2695.82322918104,1597.4053428351,41.9374637779827));
#585=CARTESIAN_POINT('',(-2694.53031720333,1597.4053428351,41.9374637779827));
#586=CARTESIAN_POINT('',(-2695.82322918104,1597.4053428351,21.7954337374147));
#587=CARTESIAN_POINT('',(-2694.53031720333,1597.4053428351,21.7954337374147));
#588=CARTESIAN_POINT('',(-2694.53031720333,1595.76871745656,48.3204169615145));
#589=CARTESIAN_POINT('',(-2679.53031720333,1595.76871745656,48.3204169615145));
#590=CARTESIAN_POINT('',(-2694.53031720333,1595.76871745656,28.1993391913443));
#591=CARTESIAN_POINT('',(-2679.53031720333,1595.76871745656,28.1993391913443));
#592=CARTESIAN_POINT('',(-2695.82322918104,1594.55604256735,44.7448625712073));
#593=CARTESIAN_POINT('',(-2694.53031720333,1594.55604256735,44.7448625712073));
#594=CARTESIAN_POINT('',(-2695.82322918104,1594.55604256735,24.6028325306393));
#595=CARTESIAN_POINT('',(-2694.53031720333,1594.55604256735,24.6028325306393));
#596=CARTESIAN_POINT('',(-2680.5304440036,1620.53017299689,8.3));
#597=CARTESIAN_POINT('',(-2679.5304440036,1620.53017299689,8.3));
#598=CARTESIAN_POINT('',(-2681.13316092934,1621.32812807546,8.3));
#599=CARTESIAN_POINT('',(-2681.13316092934,1621.32812807546,8.3));
#600=CARTESIAN_POINT('',(-2681.13316092934,1621.32812807546,54.9));
#601=CARTESIAN_POINT('',(-2680.5304440036,1620.53017299689,54.9));
#602=CARTESIAN_POINT('',(-2679.5304440036,1620.53017299689,54.9));
#603=CARTESIAN_POINT('',(-2681.13316092934,1621.32812807546,54.9));
#604=CARTESIAN_POINT('',(-2679.5304440036,1620.53017299689,8.3));
#605=CARTESIAN_POINT('',(-2679.5304440036,1620.53017299689,54.9));
#606=CARTESIAN_POINT('',(-2681.13316092934,1621.32812807546,8.3));
#607=CARTESIAN_POINT('',(-2688.49343197491,1615.76871745656,8.3));
#608=CARTESIAN_POINT('',(-2688.49343197491,1615.76871745656,8.3));
#609=CARTESIAN_POINT('',(-2688.49343197491,1615.76871745656,54.9));
#610=CARTESIAN_POINT('',(-2681.13316092934,1621.32812807546,54.9));
#611=CARTESIAN_POINT('',(-2688.49343197491,1615.76871745656,54.9));
#612=CARTESIAN_POINT('',(-2688.49343197491,1615.76871745656,8.3));
#613=CARTESIAN_POINT('',(-2695.82322918104,1615.76871745656,8.3));
#614=CARTESIAN_POINT('',(-2695.82322918104,1615.76871745656,8.3));
#615=CARTESIAN_POINT('',(-2695.82322918104,1615.76871745656,54.9));
#616=CARTESIAN_POINT('',(-2688.49343197491,1615.76871745656,54.9));
#617=CARTESIAN_POINT('',(-2695.82322918104,1615.76871745656,54.9));
#618=CARTESIAN_POINT('',(-2695.82322918104,1615.76871745656,8.3));
#619=CARTESIAN_POINT('',(-2695.82322918104,1575.76871745656,8.3));
#620=CARTESIAN_POINT('',(-2695.82322918104,1575.76871745656,8.3));
#621=CARTESIAN_POINT('',(-2695.82322918104,1575.76871745656,54.9));
#622=CARTESIAN_POINT('',(-2695.82322918104,1615.76871745656,54.9));
#623=CARTESIAN_POINT('',(-2695.82322918104,1575.76871745656,54.9));
#624=CARTESIAN_POINT('',(-2695.82322918104,1575.76871745656,8.3));
#625=CARTESIAN_POINT('',(-2688.49343197491,1575.76871745656,8.3));
#626=CARTESIAN_POINT('',(-2688.49343197491,1575.76871745656,8.3));
#627=CARTESIAN_POINT('',(-2688.49343197491,1575.76871745656,54.9));
#628=CARTESIAN_POINT('',(-2695.82322918104,1575.76871745656,54.9));
#629=CARTESIAN_POINT('',(-2688.49343197491,1575.76871745656,54.9));
#630=CARTESIAN_POINT('',(-2688.49343197491,1575.76871745656,8.3));
#631=CARTESIAN_POINT('',(-2681.13316092934,1570.20930683766,8.3));
#632=CARTESIAN_POINT('',(-2681.13316092934,1570.20930683766,8.3));
#633=CARTESIAN_POINT('',(-2681.13316092934,1570.20930683766,54.9));
#634=CARTESIAN_POINT('',(-2688.49343197491,1575.76871745656,54.9));
#635=CARTESIAN_POINT('',(-2681.13316092934,1570.20930683766,54.9));
#636=CARTESIAN_POINT('',(-2680.53044400359,1571.00726191624,8.3));
#637=CARTESIAN_POINT('',(-2681.13316092934,1570.20930683766,8.3));
#638=CARTESIAN_POINT('',(-2679.53044400359,1571.00726191624,8.3));
#639=CARTESIAN_POINT('',(-2679.53044400359,1571.00726191624,8.3));
#640=CARTESIAN_POINT('',(-2679.53044400359,1571.00726191624,54.9));
#641=CARTESIAN_POINT('',(-2680.53044400359,1571.00726191624,54.9));
#642=CARTESIAN_POINT('',(-2681.13316092934,1570.20930683766,54.9));
#643=CARTESIAN_POINT('',(-2679.53044400359,1571.00726191624,54.9));
#644=CARTESIAN_POINT('',(-2679.53044400359,1571.00726191624,8.3));
#645=CARTESIAN_POINT('',(-2679.53044400359,1575.76871745656,8.3));
#646=CARTESIAN_POINT('',(-2679.5304440036,1615.76871745656,8.3));
#647=CARTESIAN_POINT('',(-2679.5304440036,1620.53017299689,8.3));
#648=CARTESIAN_POINT('',(-2679.53044400359,1571.00726191624,54.9));
#649=CARTESIAN_POINT('',(-2679.53044400359,1575.76871745656,54.9));
#650=CARTESIAN_POINT('',(-2679.5304440036,1615.76871745656,54.9));
#651=CARTESIAN_POINT('',(-2679.5304440036,1620.53017299689,54.9));
#652=CARTESIAN_POINT('',(-2694.53031720333,1595.76871745656,43.3204169615145));
#653=CARTESIAN_POINT('',(-2694.53031720333,1595.76871745656,38.3204169615145));
#654=CARTESIAN_POINT('',(-2694.53031720333,1595.76871745656,48.3204169615145));
#655=CARTESIAN_POINT('',(-2694.53031720333,1595.76871745656,38.3204169615145));
#656=CARTESIAN_POINT('',(-2679.53031720333,1595.76871745656,38.3204169615145));
#657=CARTESIAN_POINT('',(-2679.53031720333,1595.76871745656,43.3204169615145));
#658=CARTESIAN_POINT('',(-2679.53031720333,1595.76871745656,38.3204169615145));
#659=CARTESIAN_POINT('',(-2679.53031720333,1595.76871745656,48.3204169615145));
#660=CARTESIAN_POINT('',(-2694.53031720333,1595.76871745656,23.1993391913443));
#661=CARTESIAN_POINT('',(-2694.53031720333,1595.76871745656,18.1993391913443));
#662=CARTESIAN_POINT('',(-2694.53031720333,1595.76871745656,28.1993391913442));
#663=CARTESIAN_POINT('',(-2694.53031720333,1595.76871745656,18.1993391913443));
#664=CARTESIAN_POINT('',(-2679.53031720333,1595.76871745656,18.1993391913443));
#665=CARTESIAN_POINT('',(-2679.53031720333,1595.76871745656,23.1993391913443));
#666=CARTESIAN_POINT('',(-2679.53031720333,1595.76871745656,18.1993391913443));
#667=CARTESIAN_POINT('',(-2679.53031720333,1595.76871745656,28.1993391913442));
#668=CARTESIAN_POINT('',(-2695.82322918104,1595.98069270123,43.341163174595));
#669=CARTESIAN_POINT('',(-2695.82322918104,1597.4053428351,41.9374637779827));
#670=CARTESIAN_POINT('',(-2695.82322918104,1594.55604256735,44.744862571207));
#671=CARTESIAN_POINT('',(-2695.82322918104,1597.4053428351,41.9374637779827));
#672=CARTESIAN_POINT('',(-2694.53031720333,1597.4053428351,41.9374637779827));
#673=CARTESIAN_POINT('',(-2694.53031720333,1595.98069270123,43.341163174595));
#674=CARTESIAN_POINT('',(-2694.53031720333,1597.4053428351,41.9374637779827));
#675=CARTESIAN_POINT('',(-2694.53031720333,1594.55604256735,44.7448625712071));
#676=CARTESIAN_POINT('',(-2695.82322918104,1595.98069270123,23.199133134027));
#677=CARTESIAN_POINT('',(-2695.82322918104,1597.4053428351,21.7954337374147));
#678=CARTESIAN_POINT('',(-2695.82322918104,1594.55604256735,24.602832530639));
#679=CARTESIAN_POINT('',(-2695.82322918104,1597.4053428351,21.7954337374147));
#680=CARTESIAN_POINT('',(-2694.53031720333,1597.4053428351,21.7954337374147));
#681=CARTESIAN_POINT('',(-2694.53031720333,1595.98069270123,23.199133134027));
#682=CARTESIAN_POINT('',(-2694.53031720333,1597.4053428351,21.7954337374147));
#683=CARTESIAN_POINT('',(-2694.53031720333,1594.55604256735,24.6028325306391));
#684=CARTESIAN_POINT('',(-2694.53031720333,1595.76871745656,48.3204169615145));
#685=CARTESIAN_POINT('',(-2679.53031720333,1595.76871745656,48.3204169615145));
#686=CARTESIAN_POINT('',(-2694.53031720333,1595.76871745656,43.3204169615145));
#687=CARTESIAN_POINT('',(-2694.53031720333,1595.76871745656,48.3204169615145));
#688=CARTESIAN_POINT('',(-2694.53031720333,1595.76871745656,38.3204169615145));
#689=CARTESIAN_POINT('',(-2679.53031720333,1595.76871745656,43.3204169615145));
#690=CARTESIAN_POINT('',(-2679.53031720333,1595.76871745656,48.3204169615145));
#691=CARTESIAN_POINT('',(-2679.53031720333,1595.76871745656,38.3204169615145));
#692=CARTESIAN_POINT('',(-2694.53031720333,1595.76871745656,28.1993391913443));
#693=CARTESIAN_POINT('',(-2679.53031720333,1595.76871745656,28.1993391913443));
#694=CARTESIAN_POINT('',(-2694.53031720333,1595.76871745656,23.1993391913442));
#695=CARTESIAN_POINT('',(-2694.53031720333,1595.76871745656,28.1993391913443));
#696=CARTESIAN_POINT('',(-2694.53031720333,1595.76871745656,18.1993391913441));
#697=CARTESIAN_POINT('',(-2679.53031720333,1595.76871745656,23.1993391913442));
#698=CARTESIAN_POINT('',(-2679.53031720333,1595.76871745656,28.1993391913443));
#699=CARTESIAN_POINT('',(-2679.53031720333,1595.76871745656,18.1993391913441));
#700=CARTESIAN_POINT('',(-2695.82322918104,1594.55604256735,44.7448625712073));
#701=CARTESIAN_POINT('',(-2694.53031720333,1594.55604256735,44.7448625712073));
#702=CARTESIAN_POINT('',(-2695.82322918104,1595.98069270123,43.341163174595));
#703=CARTESIAN_POINT('',(-2695.82322918104,1594.55604256735,44.7448625712073));
#704=CARTESIAN_POINT('',(-2695.82322918104,1597.4053428351,41.9374637779825));
#705=CARTESIAN_POINT('',(-2694.53031720333,1595.98069270123,43.341163174595));
#706=CARTESIAN_POINT('',(-2694.53031720333,1594.55604256735,44.7448625712073));
#707=CARTESIAN_POINT('',(-2694.53031720333,1597.4053428351,41.9374637779825));
#708=CARTESIAN_POINT('',(-2695.82322918104,1594.55604256735,24.6028325306393));
#709=CARTESIAN_POINT('',(-2694.53031720333,1594.55604256735,24.6028325306393));
#710=CARTESIAN_POINT('',(-2695.82322918104,1595.98069270123,23.199133134027));
#711=CARTESIAN_POINT('',(-2695.82322918104,1594.55604256735,24.6028325306393));
#712=CARTESIAN_POINT('',(-2695.82322918104,1597.4053428351,21.7954337374145));
#713=CARTESIAN_POINT('',(-2694.53031720333,1595.98069270123,23.199133134027));
#714=CARTESIAN_POINT('',(-2694.53031720333,1594.55604256735,24.6028325306393));
#715=CARTESIAN_POINT('',(-2694.53031720333,1597.4053428351,21.7954337374145));
#716=CARTESIAN_POINT('',(0.,0.,0.));
ENDSEC;
END-ISO-10303-21;
