ISO-10303-21;
HEADER;
/* Generated by software containing ST-Developer
 * from STEP Tools, Inc. (www.steptools.com) 
 */
/* OPTION: using custom schema-name function */

FILE_DESCRIPTION(
/* description */ (''),
/* implementation_level */ '2;1');

FILE_NAME(
/* name */ 'clock part',
/* time_stamp */ '2026-06-21T18:32:50+03:00',
/* author */ (''),
/* organization */ (''),
/* preprocessor_version */ 'ST-DEVELOPER v19.2',
/* originating_system */ 'Rhino 8.32',
/* authorisation */ '');

FILE_SCHEMA (('CONFIG_CONTROL_DESIGN'));
ENDSEC;

DATA;
#10=SHAPE_REPRESENTATION_RELATIONSHIP('','',#623,#12);
#11=MANIFOLD_SOLID_BREP('brep_1',#13);
#12=ADVANCED_BREP_SHAPE_REPRESENTATION('brep_rep_0',(#11,#688),#622);
#13=CLOSED_SHELL('',(#21,#22,#23,#24,#25,#26,#27,#28,#29,#30,#31,#32,#33,
#34,#35,#36,#37,#38,#39,#40,#41,#42,#43,#44,#45,#46,#47,#48,#49,#50,#51,
#52));
#14=FACE_BOUND('',#91,.T.);
#15=FACE_BOUND('',#94,.T.);
#16=FACE_BOUND('',#113,.T.);
#17=FACE_BOUND('',#114,.T.);
#18=FACE_BOUND('',#115,.T.);
#19=FACE_BOUND('',#116,.T.);
#20=FACE_BOUND('',#117,.T.);
#21=ADVANCED_FACE('',(#53),#521,.T.);
#22=ADVANCED_FACE('',(#54),#522,.T.);
#23=ADVANCED_FACE('',(#55),#523,.T.);
#24=ADVANCED_FACE('',(#56),#506,.T.);
#25=ADVANCED_FACE('',(#57),#506,.T.);
#26=ADVANCED_FACE('',(#58,#14),#525,.T.);
#27=ADVANCED_FACE('',(#59),#509,.F.);
#28=ADVANCED_FACE('',(#60,#15),#531,.T.);
#29=ADVANCED_FACE('',(#61),#511,.F.);
#30=ADVANCED_FACE('',(#62),#513,.F.);
#31=ADVANCED_FACE('',(#63),#532,.T.);
#32=ADVANCED_FACE('',(#64),#515,.F.);
#33=ADVANCED_FACE('',(#65),#533,.T.);
#34=ADVANCED_FACE('',(#66),#517,.F.);
#35=ADVANCED_FACE('',(#67),#534,.T.);
#36=ADVANCED_FACE('',(#68),#519,.F.);
#37=ADVANCED_FACE('',(#69),#535,.T.);
#38=ADVANCED_FACE('',(#70),#507,.F.);
#39=ADVANCED_FACE('',(#71),#526,.T.);
#40=ADVANCED_FACE('',(#72),#527,.T.);
#41=ADVANCED_FACE('',(#73),#528,.T.);
#42=ADVANCED_FACE('',(#74),#529,.T.);
#43=ADVANCED_FACE('',(#75),#508,.F.);
#44=ADVANCED_FACE('',(#76),#530,.T.);
#45=ADVANCED_FACE('',(#77),#536,.T.);
#46=ADVANCED_FACE('',(#78,#16,#17,#18,#19,#20),#524,.T.);
#47=ADVANCED_FACE('',(#79),#510,.F.);
#48=ADVANCED_FACE('',(#80),#512,.F.);
#49=ADVANCED_FACE('',(#81),#514,.F.);
#50=ADVANCED_FACE('',(#82),#516,.F.);
#51=ADVANCED_FACE('',(#83),#518,.F.);
#52=ADVANCED_FACE('',(#84),#520,.F.);
#53=FACE_OUTER_BOUND('',#85,.T.);
#54=FACE_OUTER_BOUND('',#86,.T.);
#55=FACE_OUTER_BOUND('',#87,.T.);
#56=FACE_OUTER_BOUND('',#88,.T.);
#57=FACE_OUTER_BOUND('',#89,.T.);
#58=FACE_OUTER_BOUND('',#90,.T.);
#59=FACE_OUTER_BOUND('',#92,.T.);
#60=FACE_OUTER_BOUND('',#93,.T.);
#61=FACE_OUTER_BOUND('',#95,.T.);
#62=FACE_OUTER_BOUND('',#96,.T.);
#63=FACE_OUTER_BOUND('',#97,.T.);
#64=FACE_OUTER_BOUND('',#98,.T.);
#65=FACE_OUTER_BOUND('',#99,.T.);
#66=FACE_OUTER_BOUND('',#100,.T.);
#67=FACE_OUTER_BOUND('',#101,.T.);
#68=FACE_OUTER_BOUND('',#102,.T.);
#69=FACE_OUTER_BOUND('',#103,.T.);
#70=FACE_OUTER_BOUND('',#104,.T.);
#71=FACE_OUTER_BOUND('',#105,.T.);
#72=FACE_OUTER_BOUND('',#106,.T.);
#73=FACE_OUTER_BOUND('',#107,.T.);
#74=FACE_OUTER_BOUND('',#108,.T.);
#75=FACE_OUTER_BOUND('',#109,.T.);
#76=FACE_OUTER_BOUND('',#110,.T.);
#77=FACE_OUTER_BOUND('',#111,.T.);
#78=FACE_OUTER_BOUND('',#112,.T.);
#79=FACE_OUTER_BOUND('',#118,.T.);
#80=FACE_OUTER_BOUND('',#119,.T.);
#81=FACE_OUTER_BOUND('',#120,.T.);
#82=FACE_OUTER_BOUND('',#121,.T.);
#83=FACE_OUTER_BOUND('',#122,.T.);
#84=FACE_OUTER_BOUND('',#123,.T.);
#85=EDGE_LOOP('',(#124,#125,#126,#127,#128,#129,#130,#131));
#86=EDGE_LOOP('',(#132,#133,#134,#135));
#87=EDGE_LOOP('',(#136,#137,#138,#139));
#88=EDGE_LOOP('',(#140,#141,#142,#143));
#89=EDGE_LOOP('',(#144,#145,#146,#147));
#90=EDGE_LOOP('',(#148,#149,#150,#151,#152));
#91=EDGE_LOOP('',(#153,#154));
#92=EDGE_LOOP('',(#155,#156,#157,#158));
#93=EDGE_LOOP('',(#159,#160));
#94=EDGE_LOOP('',(#161,#162));
#95=EDGE_LOOP('',(#163,#164,#165,#166));
#96=EDGE_LOOP('',(#167,#168,#169,#170));
#97=EDGE_LOOP('',(#171,#172));
#98=EDGE_LOOP('',(#173,#174,#175,#176));
#99=EDGE_LOOP('',(#177,#178));
#100=EDGE_LOOP('',(#179,#180,#181,#182));
#101=EDGE_LOOP('',(#183,#184));
#102=EDGE_LOOP('',(#185,#186,#187,#188));
#103=EDGE_LOOP('',(#189,#190));
#104=EDGE_LOOP('',(#191,#192,#193,#194));
#105=EDGE_LOOP('',(#195,#196,#197,#198));
#106=EDGE_LOOP('',(#199,#200,#201,#202));
#107=EDGE_LOOP('',(#203,#204,#205,#206));
#108=EDGE_LOOP('',(#207,#208,#209,#210));
#109=EDGE_LOOP('',(#211,#212,#213,#214));
#110=EDGE_LOOP('',(#215,#216,#217,#218));
#111=EDGE_LOOP('',(#219,#220,#221,#222,#223,#224,#225,#226));
#112=EDGE_LOOP('',(#227,#228,#229,#230,#231,#232,#233,#234,#235,#236,#237,
#238,#239));
#113=EDGE_LOOP('',(#240,#241));
#114=EDGE_LOOP('',(#242,#243));
#115=EDGE_LOOP('',(#244,#245));
#116=EDGE_LOOP('',(#246,#247));
#117=EDGE_LOOP('',(#248,#249));
#118=EDGE_LOOP('',(#250,#251,#252,#253));
#119=EDGE_LOOP('',(#254,#255,#256,#257));
#120=EDGE_LOOP('',(#258,#259,#260,#261));
#121=EDGE_LOOP('',(#262,#263,#264,#265));
#122=EDGE_LOOP('',(#266,#267,#268,#269));
#123=EDGE_LOOP('',(#270,#271,#272,#273));
#124=ORIENTED_EDGE('',*,*,#314,.T.);
#125=ORIENTED_EDGE('',*,*,#317,.T.);
#126=ORIENTED_EDGE('',*,*,#316,.F.);
#127=ORIENTED_EDGE('',*,*,#330,.T.);
#128=ORIENTED_EDGE('',*,*,#275,.T.);
#129=ORIENTED_EDGE('',*,*,#276,.F.);
#130=ORIENTED_EDGE('',*,*,#277,.F.);
#131=ORIENTED_EDGE('',*,*,#274,.T.);
#132=ORIENTED_EDGE('',*,*,#283,.T.);
#133=ORIENTED_EDGE('',*,*,#279,.F.);
#134=ORIENTED_EDGE('',*,*,#275,.F.);
#135=ORIENTED_EDGE('',*,*,#278,.T.);
#136=ORIENTED_EDGE('',*,*,#284,.T.);
#137=ORIENTED_EDGE('',*,*,#285,.T.);
#138=ORIENTED_EDGE('',*,*,#277,.T.);
#139=ORIENTED_EDGE('',*,*,#286,.F.);
#140=ORIENTED_EDGE('',*,*,#287,.T.);
#141=ORIENTED_EDGE('',*,*,#281,.T.);
#142=ORIENTED_EDGE('',*,*,#288,.F.);
#143=ORIENTED_EDGE('',*,*,#283,.F.);
#144=ORIENTED_EDGE('',*,*,#282,.F.);
#145=ORIENTED_EDGE('',*,*,#281,.F.);
#146=ORIENTED_EDGE('',*,*,#280,.T.);
#147=ORIENTED_EDGE('',*,*,#284,.F.);
#148=ORIENTED_EDGE('',*,*,#288,.T.);
#149=ORIENTED_EDGE('',*,*,#282,.T.);
#150=ORIENTED_EDGE('',*,*,#286,.T.);
#151=ORIENTED_EDGE('',*,*,#276,.T.);
#152=ORIENTED_EDGE('',*,*,#279,.T.);
#153=ORIENTED_EDGE('',*,*,#291,.T.);
#154=ORIENTED_EDGE('',*,*,#333,.T.);
#155=ORIENTED_EDGE('',*,*,#289,.F.);
#156=ORIENTED_EDGE('',*,*,#290,.T.);
#157=ORIENTED_EDGE('',*,*,#333,.F.);
#158=ORIENTED_EDGE('',*,*,#331,.F.);
#159=ORIENTED_EDGE('',*,*,#289,.T.);
#160=ORIENTED_EDGE('',*,*,#332,.T.);
#161=ORIENTED_EDGE('',*,*,#293,.T.);
#162=ORIENTED_EDGE('',*,*,#336,.T.);
#163=ORIENTED_EDGE('',*,*,#335,.T.);
#164=ORIENTED_EDGE('',*,*,#294,.T.);
#165=ORIENTED_EDGE('',*,*,#336,.F.);
#166=ORIENTED_EDGE('',*,*,#334,.F.);
#167=ORIENTED_EDGE('',*,*,#295,.F.);
#168=ORIENTED_EDGE('',*,*,#296,.T.);
#169=ORIENTED_EDGE('',*,*,#297,.T.);
#170=ORIENTED_EDGE('',*,*,#337,.F.);
#171=ORIENTED_EDGE('',*,*,#339,.F.);
#172=ORIENTED_EDGE('',*,*,#297,.F.);
#173=ORIENTED_EDGE('',*,*,#298,.F.);
#174=ORIENTED_EDGE('',*,*,#299,.T.);
#175=ORIENTED_EDGE('',*,*,#300,.T.);
#176=ORIENTED_EDGE('',*,*,#340,.F.);
#177=ORIENTED_EDGE('',*,*,#342,.F.);
#178=ORIENTED_EDGE('',*,*,#300,.F.);
#179=ORIENTED_EDGE('',*,*,#301,.F.);
#180=ORIENTED_EDGE('',*,*,#302,.T.);
#181=ORIENTED_EDGE('',*,*,#303,.T.);
#182=ORIENTED_EDGE('',*,*,#343,.F.);
#183=ORIENTED_EDGE('',*,*,#345,.F.);
#184=ORIENTED_EDGE('',*,*,#303,.F.);
#185=ORIENTED_EDGE('',*,*,#304,.F.);
#186=ORIENTED_EDGE('',*,*,#305,.T.);
#187=ORIENTED_EDGE('',*,*,#306,.T.);
#188=ORIENTED_EDGE('',*,*,#346,.F.);
#189=ORIENTED_EDGE('',*,*,#348,.F.);
#190=ORIENTED_EDGE('',*,*,#306,.F.);
#191=ORIENTED_EDGE('',*,*,#310,.T.);
#192=ORIENTED_EDGE('',*,*,#309,.T.);
#193=ORIENTED_EDGE('',*,*,#308,.F.);
#194=ORIENTED_EDGE('',*,*,#307,.F.);
#195=ORIENTED_EDGE('',*,*,#308,.T.);
#196=ORIENTED_EDGE('',*,*,#313,.T.);
#197=ORIENTED_EDGE('',*,*,#312,.F.);
#198=ORIENTED_EDGE('',*,*,#311,.F.);
#199=ORIENTED_EDGE('',*,*,#312,.T.);
#200=ORIENTED_EDGE('',*,*,#315,.T.);
#201=ORIENTED_EDGE('',*,*,#314,.F.);
#202=ORIENTED_EDGE('',*,*,#327,.F.);
#203=ORIENTED_EDGE('',*,*,#316,.T.);
#204=ORIENTED_EDGE('',*,*,#319,.T.);
#205=ORIENTED_EDGE('',*,*,#318,.F.);
#206=ORIENTED_EDGE('',*,*,#328,.F.);
#207=ORIENTED_EDGE('',*,*,#318,.T.);
#208=ORIENTED_EDGE('',*,*,#322,.T.);
#209=ORIENTED_EDGE('',*,*,#321,.F.);
#210=ORIENTED_EDGE('',*,*,#320,.F.);
#211=ORIENTED_EDGE('',*,*,#321,.T.);
#212=ORIENTED_EDGE('',*,*,#325,.T.);
#213=ORIENTED_EDGE('',*,*,#324,.F.);
#214=ORIENTED_EDGE('',*,*,#323,.F.);
#215=ORIENTED_EDGE('',*,*,#324,.T.);
#216=ORIENTED_EDGE('',*,*,#326,.T.);
#217=ORIENTED_EDGE('',*,*,#310,.F.);
#218=ORIENTED_EDGE('',*,*,#329,.F.);
#219=ORIENTED_EDGE('',*,*,#326,.F.);
#220=ORIENTED_EDGE('',*,*,#325,.F.);
#221=ORIENTED_EDGE('',*,*,#322,.F.);
#222=ORIENTED_EDGE('',*,*,#319,.F.);
#223=ORIENTED_EDGE('',*,*,#317,.F.);
#224=ORIENTED_EDGE('',*,*,#315,.F.);
#225=ORIENTED_EDGE('',*,*,#313,.F.);
#226=ORIENTED_EDGE('',*,*,#309,.F.);
#227=ORIENTED_EDGE('',*,*,#307,.T.);
#228=ORIENTED_EDGE('',*,*,#311,.T.);
#229=ORIENTED_EDGE('',*,*,#327,.T.);
#230=ORIENTED_EDGE('',*,*,#274,.F.);
#231=ORIENTED_EDGE('',*,*,#285,.F.);
#232=ORIENTED_EDGE('',*,*,#280,.F.);
#233=ORIENTED_EDGE('',*,*,#287,.F.);
#234=ORIENTED_EDGE('',*,*,#278,.F.);
#235=ORIENTED_EDGE('',*,*,#330,.F.);
#236=ORIENTED_EDGE('',*,*,#328,.T.);
#237=ORIENTED_EDGE('',*,*,#320,.T.);
#238=ORIENTED_EDGE('',*,*,#323,.T.);
#239=ORIENTED_EDGE('',*,*,#329,.T.);
#240=ORIENTED_EDGE('',*,*,#335,.F.);
#241=ORIENTED_EDGE('',*,*,#292,.F.);
#242=ORIENTED_EDGE('',*,*,#295,.T.);
#243=ORIENTED_EDGE('',*,*,#338,.T.);
#244=ORIENTED_EDGE('',*,*,#298,.T.);
#245=ORIENTED_EDGE('',*,*,#341,.T.);
#246=ORIENTED_EDGE('',*,*,#301,.T.);
#247=ORIENTED_EDGE('',*,*,#344,.T.);
#248=ORIENTED_EDGE('',*,*,#304,.T.);
#249=ORIENTED_EDGE('',*,*,#347,.T.);
#250=ORIENTED_EDGE('',*,*,#331,.T.);
#251=ORIENTED_EDGE('',*,*,#291,.F.);
#252=ORIENTED_EDGE('',*,*,#290,.F.);
#253=ORIENTED_EDGE('',*,*,#332,.F.);
#254=ORIENTED_EDGE('',*,*,#334,.T.);
#255=ORIENTED_EDGE('',*,*,#293,.F.);
#256=ORIENTED_EDGE('',*,*,#294,.F.);
#257=ORIENTED_EDGE('',*,*,#292,.T.);
#258=ORIENTED_EDGE('',*,*,#337,.T.);
#259=ORIENTED_EDGE('',*,*,#339,.T.);
#260=ORIENTED_EDGE('',*,*,#296,.F.);
#261=ORIENTED_EDGE('',*,*,#338,.F.);
#262=ORIENTED_EDGE('',*,*,#340,.T.);
#263=ORIENTED_EDGE('',*,*,#342,.T.);
#264=ORIENTED_EDGE('',*,*,#299,.F.);
#265=ORIENTED_EDGE('',*,*,#341,.F.);
#266=ORIENTED_EDGE('',*,*,#343,.T.);
#267=ORIENTED_EDGE('',*,*,#345,.T.);
#268=ORIENTED_EDGE('',*,*,#302,.F.);
#269=ORIENTED_EDGE('',*,*,#344,.F.);
#270=ORIENTED_EDGE('',*,*,#346,.T.);
#271=ORIENTED_EDGE('',*,*,#348,.T.);
#272=ORIENTED_EDGE('',*,*,#305,.F.);
#273=ORIENTED_EDGE('',*,*,#347,.F.);
#274=EDGE_CURVE('',#456,#484,#429,.T.);
#275=EDGE_CURVE('',#457,#458,#430,.T.);
#276=EDGE_CURVE('',#459,#458,#431,.T.);
#277=EDGE_CURVE('',#456,#459,#432,.T.);
#278=EDGE_CURVE('',#457,#462,#433,.T.);
#279=EDGE_CURVE('',#458,#463,#434,.T.);
#280=EDGE_CURVE('',#460,#465,#365,.T.);
#281=EDGE_CURVE('',#460,#461,#349,.T.);
#282=EDGE_CURVE('',#461,#464,#366,.T.);
#283=EDGE_CURVE('',#462,#463,#435,.T.);
#284=EDGE_CURVE('',#464,#465,#436,.T.);
#285=EDGE_CURVE('',#465,#456,#437,.T.);
#286=EDGE_CURVE('',#464,#459,#438,.T.);
#287=EDGE_CURVE('',#462,#460,#367,.T.);
#288=EDGE_CURVE('',#463,#461,#368,.T.);
#289=EDGE_CURVE('',#466,#494,#369,.T.);
#290=EDGE_CURVE('',#466,#467,#350,.T.);
#291=EDGE_CURVE('',#467,#495,#370,.T.);
#292=EDGE_CURVE('',#468,#496,#371,.T.);
#293=EDGE_CURVE('',#469,#497,#372,.T.);
#294=EDGE_CURVE('',#468,#469,#351,.T.);
#295=EDGE_CURVE('',#471,#498,#373,.T.);
#296=EDGE_CURVE('',#471,#470,#352,.T.);
#297=EDGE_CURVE('',#470,#499,#374,.T.);
#298=EDGE_CURVE('',#473,#500,#375,.T.);
#299=EDGE_CURVE('',#473,#472,#353,.T.);
#300=EDGE_CURVE('',#472,#501,#376,.T.);
#301=EDGE_CURVE('',#475,#502,#377,.T.);
#302=EDGE_CURVE('',#475,#474,#354,.T.);
#303=EDGE_CURVE('',#474,#503,#378,.T.);
#304=EDGE_CURVE('',#477,#504,#379,.T.);
#305=EDGE_CURVE('',#477,#476,#355,.T.);
#306=EDGE_CURVE('',#476,#505,#380,.T.);
#307=EDGE_CURVE('',#488,#489,#381,.T.);
#308=EDGE_CURVE('',#489,#478,#356,.T.);
#309=EDGE_CURVE('',#479,#478,#382,.T.);
#310=EDGE_CURVE('',#488,#479,#357,.T.);
#311=EDGE_CURVE('',#489,#490,#439,.T.);
#312=EDGE_CURVE('',#490,#480,#440,.T.);
#313=EDGE_CURVE('',#478,#480,#441,.T.);
#314=EDGE_CURVE('',#484,#485,#442,.T.);
#315=EDGE_CURVE('',#480,#485,#443,.T.);
#316=EDGE_CURVE('',#486,#487,#444,.T.);
#317=EDGE_CURVE('',#485,#487,#445,.T.);
#318=EDGE_CURVE('',#491,#481,#446,.T.);
#319=EDGE_CURVE('',#487,#481,#447,.T.);
#320=EDGE_CURVE('',#491,#492,#448,.T.);
#321=EDGE_CURVE('',#492,#482,#449,.T.);
#322=EDGE_CURVE('',#481,#482,#450,.T.);
#323=EDGE_CURVE('',#492,#493,#383,.T.);
#324=EDGE_CURVE('',#493,#483,#358,.T.);
#325=EDGE_CURVE('',#482,#483,#384,.T.);
#326=EDGE_CURVE('',#483,#479,#451,.T.);
#327=EDGE_CURVE('',#490,#484,#452,.T.);
#328=EDGE_CURVE('',#486,#491,#453,.T.);
#329=EDGE_CURVE('',#493,#488,#454,.T.);
#330=EDGE_CURVE('',#486,#457,#455,.T.);
#331=EDGE_CURVE('',#494,#495,#359,.T.);
#332=EDGE_CURVE('',#494,#466,#385,.T.);
#333=EDGE_CURVE('',#495,#467,#386,.T.);
#334=EDGE_CURVE('',#496,#497,#360,.T.);
#335=EDGE_CURVE('',#496,#468,#387,.T.);
#336=EDGE_CURVE('',#497,#469,#388,.T.);
#337=EDGE_CURVE('',#498,#499,#361,.T.);
#338=EDGE_CURVE('',#498,#471,#389,.T.);
#339=EDGE_CURVE('',#499,#470,#390,.T.);
#340=EDGE_CURVE('',#500,#501,#362,.T.);
#341=EDGE_CURVE('',#500,#473,#391,.T.);
#342=EDGE_CURVE('',#501,#472,#392,.T.);
#343=EDGE_CURVE('',#502,#503,#363,.T.);
#344=EDGE_CURVE('',#502,#475,#393,.T.);
#345=EDGE_CURVE('',#503,#474,#394,.T.);
#346=EDGE_CURVE('',#504,#505,#364,.T.);
#347=EDGE_CURVE('',#504,#477,#395,.T.);
#348=EDGE_CURVE('',#505,#476,#396,.T.);
#349=(
BOUNDED_CURVE()
B_SPLINE_CURVE(1,(#885,#886),.UNSPECIFIED.,.F.,.F.)
B_SPLINE_CURVE_WITH_KNOTS((2,2),(0.,16.6),.UNSPECIFIED.)
CURVE()
GEOMETRIC_REPRESENTATION_ITEM()
RATIONAL_B_SPLINE_CURVE((1.,1.))
REPRESENTATION_ITEM('')
);
#350=(
BOUNDED_CURVE()
B_SPLINE_CURVE(1,(#907,#908),.UNSPECIFIED.,.F.,.F.)
B_SPLINE_CURVE_WITH_KNOTS((2,2),(0.,5.),.UNSPECIFIED.)
CURVE()
GEOMETRIC_REPRESENTATION_ITEM()
RATIONAL_B_SPLINE_CURVE((1.,1.))
REPRESENTATION_ITEM('')
);
#351=(
BOUNDED_CURVE()
B_SPLINE_CURVE(1,(#918,#919),.UNSPECIFIED.,.F.,.F.)
B_SPLINE_CURVE_WITH_KNOTS((2,2),(2.03078949445471,13.6307894944547),
 .UNSPECIFIED.)
CURVE()
GEOMETRIC_REPRESENTATION_ITEM()
RATIONAL_B_SPLINE_CURVE((1.,1.))
REPRESENTATION_ITEM('')
);
#352=(
BOUNDED_CURVE()
B_SPLINE_CURVE(1,(#923,#924),.UNSPECIFIED.,.F.,.F.)
B_SPLINE_CURVE_WITH_KNOTS((2,2),(0.,3.),.UNSPECIFIED.)
CURVE()
GEOMETRIC_REPRESENTATION_ITEM()
RATIONAL_B_SPLINE_CURVE((1.,1.))
REPRESENTATION_ITEM('')
);
#353=(
BOUNDED_CURVE()
B_SPLINE_CURVE(1,(#931,#932),.UNSPECIFIED.,.F.,.F.)
B_SPLINE_CURVE_WITH_KNOTS((2,2),(0.,3.),.UNSPECIFIED.)
CURVE()
GEOMETRIC_REPRESENTATION_ITEM()
RATIONAL_B_SPLINE_CURVE((1.,1.))
REPRESENTATION_ITEM('')
);
#354=(
BOUNDED_CURVE()
B_SPLINE_CURVE(1,(#939,#940),.UNSPECIFIED.,.F.,.F.)
B_SPLINE_CURVE_WITH_KNOTS((2,2),(0.,3.),.UNSPECIFIED.)
CURVE()
GEOMETRIC_REPRESENTATION_ITEM()
RATIONAL_B_SPLINE_CURVE((1.,1.))
REPRESENTATION_ITEM('')
);
#355=(
BOUNDED_CURVE()
B_SPLINE_CURVE(1,(#947,#948),.UNSPECIFIED.,.F.,.F.)
B_SPLINE_CURVE_WITH_KNOTS((2,2),(0.,3.),.UNSPECIFIED.)
CURVE()
GEOMETRIC_REPRESENTATION_ITEM()
RATIONAL_B_SPLINE_CURVE((1.,1.))
REPRESENTATION_ITEM('')
);
#356=(
BOUNDED_CURVE()
B_SPLINE_CURVE(1,(#955,#956),.UNSPECIFIED.,.F.,.F.)
B_SPLINE_CURVE_WITH_KNOTS((2,2),(0.,15.),.UNSPECIFIED.)
CURVE()
GEOMETRIC_REPRESENTATION_ITEM()
RATIONAL_B_SPLINE_CURVE((1.,1.))
REPRESENTATION_ITEM('')
);
#357=(
BOUNDED_CURVE()
B_SPLINE_CURVE(1,(#960,#961),.UNSPECIFIED.,.F.,.F.)
B_SPLINE_CURVE_WITH_KNOTS((2,2),(0.,15.),.UNSPECIFIED.)
CURVE()
GEOMETRIC_REPRESENTATION_ITEM()
RATIONAL_B_SPLINE_CURVE((1.,1.))
REPRESENTATION_ITEM('')
);
#358=(
BOUNDED_CURVE()
B_SPLINE_CURVE(1,(#989,#990),.UNSPECIFIED.,.F.,.F.)
B_SPLINE_CURVE_WITH_KNOTS((2,2),(0.,15.),.UNSPECIFIED.)
CURVE()
GEOMETRIC_REPRESENTATION_ITEM()
RATIONAL_B_SPLINE_CURVE((1.,1.))
REPRESENTATION_ITEM('')
);
#359=(
BOUNDED_CURVE()
B_SPLINE_CURVE(1,(#1004,#1005),.UNSPECIFIED.,.F.,.F.)
B_SPLINE_CURVE_WITH_KNOTS((2,2),(0.,4.99999999999999),.UNSPECIFIED.)
CURVE()
GEOMETRIC_REPRESENTATION_ITEM()
RATIONAL_B_SPLINE_CURVE((1.,1.))
REPRESENTATION_ITEM('')
);
#360=(
BOUNDED_CURVE()
B_SPLINE_CURVE(1,(#1012,#1013),.UNSPECIFIED.,.F.,.F.)
B_SPLINE_CURVE_WITH_KNOTS((2,2),(2.0307894944547,13.6307894944547),
 .UNSPECIFIED.)
CURVE()
GEOMETRIC_REPRESENTATION_ITEM()
RATIONAL_B_SPLINE_CURVE((1.,1.))
REPRESENTATION_ITEM('')
);
#361=(
BOUNDED_CURVE()
B_SPLINE_CURVE(1,(#1020,#1021),.UNSPECIFIED.,.F.,.F.)
B_SPLINE_CURVE_WITH_KNOTS((2,2),(0.,3.),.UNSPECIFIED.)
CURVE()
GEOMETRIC_REPRESENTATION_ITEM()
RATIONAL_B_SPLINE_CURVE((1.,1.))
REPRESENTATION_ITEM('')
);
#362=(
BOUNDED_CURVE()
B_SPLINE_CURVE(1,(#1028,#1029),.UNSPECIFIED.,.F.,.F.)
B_SPLINE_CURVE_WITH_KNOTS((2,2),(0.,3.),.UNSPECIFIED.)
CURVE()
GEOMETRIC_REPRESENTATION_ITEM()
RATIONAL_B_SPLINE_CURVE((1.,1.))
REPRESENTATION_ITEM('')
);
#363=(
BOUNDED_CURVE()
B_SPLINE_CURVE(1,(#1036,#1037),.UNSPECIFIED.,.F.,.F.)
B_SPLINE_CURVE_WITH_KNOTS((2,2),(0.,3.),.UNSPECIFIED.)
CURVE()
GEOMETRIC_REPRESENTATION_ITEM()
RATIONAL_B_SPLINE_CURVE((1.,1.))
REPRESENTATION_ITEM('')
);
#364=(
BOUNDED_CURVE()
B_SPLINE_CURVE(1,(#1044,#1045),.UNSPECIFIED.,.F.,.F.)
B_SPLINE_CURVE_WITH_KNOTS((2,2),(0.,3.),.UNSPECIFIED.)
CURVE()
GEOMETRIC_REPRESENTATION_ITEM()
RATIONAL_B_SPLINE_CURVE((1.,1.))
REPRESENTATION_ITEM('')
);
#365=TRIMMED_CURVE($,#397,(#883),(#884),.T.,.CARTESIAN.);
#366=TRIMMED_CURVE($,#398,(#888),(#889),.T.,.CARTESIAN.);
#367=TRIMMED_CURVE($,#399,(#899),(#900),.T.,.CARTESIAN.);
#368=TRIMMED_CURVE($,#400,(#902),(#903),.T.,.CARTESIAN.);
#369=TRIMMED_CURVE($,#401,(#905),(#906),.T.,.CARTESIAN.);
#370=TRIMMED_CURVE($,#402,(#910),(#911),.T.,.CARTESIAN.);
#371=TRIMMED_CURVE($,#403,(#913),(#914),.T.,.CARTESIAN.);
#372=TRIMMED_CURVE($,#404,(#916),(#917),.T.,.CARTESIAN.);
#373=TRIMMED_CURVE($,#405,(#921),(#922),.T.,.CARTESIAN.);
#374=TRIMMED_CURVE($,#406,(#926),(#927),.T.,.CARTESIAN.);
#375=TRIMMED_CURVE($,#407,(#929),(#930),.T.,.CARTESIAN.);
#376=TRIMMED_CURVE($,#408,(#934),(#935),.T.,.CARTESIAN.);
#377=TRIMMED_CURVE($,#409,(#937),(#938),.T.,.CARTESIAN.);
#378=TRIMMED_CURVE($,#410,(#942),(#943),.T.,.CARTESIAN.);
#379=TRIMMED_CURVE($,#411,(#945),(#946),.T.,.CARTESIAN.);
#380=TRIMMED_CURVE($,#412,(#950),(#951),.T.,.CARTESIAN.);
#381=TRIMMED_CURVE($,#413,(#953),(#954),.T.,.CARTESIAN.);
#382=TRIMMED_CURVE($,#414,(#958),(#959),.T.,.CARTESIAN.);
#383=TRIMMED_CURVE($,#415,(#987),(#988),.T.,.CARTESIAN.);
#384=TRIMMED_CURVE($,#416,(#992),(#993),.T.,.CARTESIAN.);
#385=TRIMMED_CURVE($,#417,(#1007),(#1008),.T.,.CARTESIAN.);
#386=TRIMMED_CURVE($,#418,(#1010),(#1011),.T.,.CARTESIAN.);
#387=TRIMMED_CURVE($,#419,(#1015),(#1016),.T.,.CARTESIAN.);
#388=TRIMMED_CURVE($,#420,(#1018),(#1019),.T.,.CARTESIAN.);
#389=TRIMMED_CURVE($,#421,(#1023),(#1024),.T.,.CARTESIAN.);
#390=TRIMMED_CURVE($,#422,(#1026),(#1027),.T.,.CARTESIAN.);
#391=TRIMMED_CURVE($,#423,(#1031),(#1032),.T.,.CARTESIAN.);
#392=TRIMMED_CURVE($,#424,(#1034),(#1035),.T.,.CARTESIAN.);
#393=TRIMMED_CURVE($,#425,(#1039),(#1040),.T.,.CARTESIAN.);
#394=TRIMMED_CURVE($,#426,(#1042),(#1043),.T.,.CARTESIAN.);
#395=TRIMMED_CURVE($,#427,(#1047),(#1048),.T.,.CARTESIAN.);
#396=TRIMMED_CURVE($,#428,(#1050),(#1051),.T.,.CARTESIAN.);
#397=CIRCLE('',#656,110.);
#398=CIRCLE('',#657,110.);
#399=CIRCLE('',#658,110.);
#400=CIRCLE('',#659,110.);
#401=CIRCLE('',#660,101.);
#402=CIRCLE('',#661,101.);
#403=CIRCLE('',#662,74.9999999999998);
#404=CIRCLE('',#663,74.9999999999998);
#405=CIRCLE('',#664,3.00000000000023);
#406=CIRCLE('',#665,3.00000000000023);
#407=CIRCLE('',#666,3.);
#408=CIRCLE('',#667,3.);
#409=CIRCLE('',#668,3.00000000000023);
#410=CIRCLE('',#669,3.00000000000023);
#411=CIRCLE('',#670,2.99999999999977);
#412=CIRCLE('',#671,2.99999999999977);
#413=CIRCLE('',#672,2.);
#414=CIRCLE('',#673,2.);
#415=CIRCLE('',#674,2.00000000000001);
#416=CIRCLE('',#675,2.00000000000001);
#417=CIRCLE('',#676,101.);
#418=CIRCLE('',#677,101.);
#419=CIRCLE('',#678,75.0000000000002);
#420=CIRCLE('',#679,75.0000000000002);
#421=CIRCLE('',#680,3.);
#422=CIRCLE('',#681,3.);
#423=CIRCLE('',#682,3.);
#424=CIRCLE('',#683,3.);
#425=CIRCLE('',#684,3.00000000000023);
#426=CIRCLE('',#685,3.00000000000023);
#427=CIRCLE('',#686,3.00000000000045);
#428=CIRCLE('',#687,3.00000000000045);
#429=B_SPLINE_CURVE_WITH_KNOTS('',1,(#870,#871),.UNSPECIFIED.,.F.,.F.,(2,
2),(0.,10.8772206086602),.UNSPECIFIED.);
#430=B_SPLINE_CURVE_WITH_KNOTS('',1,(#872,#873),.UNSPECIFIED.,.F.,.F.,(2,
2),(0.,16.6),.UNSPECIFIED.);
#431=B_SPLINE_CURVE_WITH_KNOTS('',1,(#874,#875),.UNSPECIFIED.,.F.,.F.,(2,
2),(0.,63.7544408959993),.UNSPECIFIED.);
#432=B_SPLINE_CURVE_WITH_KNOTS('',1,(#876,#877),.UNSPECIFIED.,.F.,.F.,(2,
2),(0.,16.6),.UNSPECIFIED.);
#433=B_SPLINE_CURVE_WITH_KNOTS('',1,(#878,#879),.UNSPECIFIED.,.F.,.F.,(2,
2),(63.7544408959993,87.7626761183607),.UNSPECIFIED.);
#434=B_SPLINE_CURVE_WITH_KNOTS('',1,(#880,#881),.UNSPECIFIED.,.F.,.F.,(2,
2),(63.7544408959993,87.7626761183607),.UNSPECIFIED.);
#435=B_SPLINE_CURVE_WITH_KNOTS('',1,(#890,#891),.UNSPECIFIED.,.F.,.F.,(2,
2),(0.,16.6),.UNSPECIFIED.);
#436=B_SPLINE_CURVE_WITH_KNOTS('',1,(#892,#893),.UNSPECIFIED.,.F.,.F.,(2,
2),(-16.6,0.),.UNSPECIFIED.);
#437=B_SPLINE_CURVE_WITH_KNOTS('',1,(#894,#895),.UNSPECIFIED.,.F.,.F.,(2,
2),(151.929500711791,175.937735934152),.UNSPECIFIED.);
#438=B_SPLINE_CURVE_WITH_KNOTS('',1,(#896,#897),.UNSPECIFIED.,.F.,.F.,(2,
2),(151.929500711791,175.937735934152),.UNSPECIFIED.);
#439=B_SPLINE_CURVE_WITH_KNOTS('',1,(#962,#963),.UNSPECIFIED.,.F.,.F.,(2,
2),(36.9544444027264,43.630038023971),.UNSPECIFIED.);
#440=B_SPLINE_CURVE_WITH_KNOTS('',1,(#964,#965),.UNSPECIFIED.,.F.,.F.,(2,
2),(0.,15.),.UNSPECIFIED.);
#441=B_SPLINE_CURVE_WITH_KNOTS('',1,(#966,#967),.UNSPECIFIED.,.F.,.F.,(2,
2),(36.9544444027264,43.630038023971),.UNSPECIFIED.);
#442=B_SPLINE_CURVE_WITH_KNOTS('',1,(#968,#969),.UNSPECIFIED.,.F.,.F.,(2,
2),(0.,15.),.UNSPECIFIED.);
#443=B_SPLINE_CURVE_WITH_KNOTS('',1,(#970,#971),.UNSPECIFIED.,.F.,.F.,(2,
2),(43.630038023971,50.6648555626591),.UNSPECIFIED.);
#444=B_SPLINE_CURVE_WITH_KNOTS('',1,(#972,#973),.UNSPECIFIED.,.F.,.F.,(2,
2),(0.,15.),.UNSPECIFIED.);
#445=B_SPLINE_CURVE_WITH_KNOTS('',1,(#974,#975),.UNSPECIFIED.,.F.,.F.,(2,
2),(50.6648555626591,75.8786909491444),.UNSPECIFIED.);
#446=B_SPLINE_CURVE_WITH_KNOTS('',1,(#976,#977),.UNSPECIFIED.,.F.,.F.,(2,
2),(0.,15.),.UNSPECIFIED.);
#447=B_SPLINE_CURVE_WITH_KNOTS('',1,(#978,#979),.UNSPECIFIED.,.F.,.F.,(2,
2),(75.8786909491444,82.9135084878324),.UNSPECIFIED.);
#448=B_SPLINE_CURVE_WITH_KNOTS('',1,(#980,#981),.UNSPECIFIED.,.F.,.F.,(2,
2),(82.9135084878324,89.5891021090771),.UNSPECIFIED.);
#449=B_SPLINE_CURVE_WITH_KNOTS('',1,(#982,#983),.UNSPECIFIED.,.F.,.F.,(2,
2),(0.,15.),.UNSPECIFIED.);
#450=B_SPLINE_CURVE_WITH_KNOTS('',1,(#984,#985),.UNSPECIFIED.,.F.,.F.,(2,
2),(82.9135084878324,89.5891021090771),.UNSPECIFIED.);
#451=B_SPLINE_CURVE_WITH_KNOTS('',1,(#994,#995),.UNSPECIFIED.,.F.,.F.,(2,
2),(91.8068000446693,126.543546511803),.UNSPECIFIED.);
#452=B_SPLINE_CURVE_WITH_KNOTS('',1,(#996,#997),.UNSPECIFIED.,.F.,.F.,(2,
2),(43.630038023971,50.6648464501801),.UNSPECIFIED.);
#453=B_SPLINE_CURVE_WITH_KNOTS('',1,(#998,#999),.UNSPECIFIED.,.F.,.F.,(2,
2),(75.8787000616234,82.9135084878324),.UNSPECIFIED.);
#454=B_SPLINE_CURVE_WITH_KNOTS('',1,(#1000,#1001),.UNSPECIFIED.,.F.,.F.,
(2,2),(91.8068000446693,126.543546511803),.UNSPECIFIED.);
#455=B_SPLINE_CURVE_WITH_KNOTS('',1,(#1002,#1003),.UNSPECIFIED.,.F.,.F.,
(2,2),(52.8772206086602,63.7544408959993),.UNSPECIFIED.);
#456=VERTEX_POINT('',#820);
#457=VERTEX_POINT('',#821);
#458=VERTEX_POINT('',#822);
#459=VERTEX_POINT('',#823);
#460=VERTEX_POINT('',#824);
#461=VERTEX_POINT('',#825);
#462=VERTEX_POINT('',#826);
#463=VERTEX_POINT('',#827);
#464=VERTEX_POINT('',#828);
#465=VERTEX_POINT('',#829);
#466=VERTEX_POINT('',#830);
#467=VERTEX_POINT('',#831);
#468=VERTEX_POINT('',#832);
#469=VERTEX_POINT('',#833);
#470=VERTEX_POINT('',#834);
#471=VERTEX_POINT('',#835);
#472=VERTEX_POINT('',#836);
#473=VERTEX_POINT('',#837);
#474=VERTEX_POINT('',#838);
#475=VERTEX_POINT('',#839);
#476=VERTEX_POINT('',#840);
#477=VERTEX_POINT('',#841);
#478=VERTEX_POINT('',#842);
#479=VERTEX_POINT('',#843);
#480=VERTEX_POINT('',#844);
#481=VERTEX_POINT('',#845);
#482=VERTEX_POINT('',#846);
#483=VERTEX_POINT('',#847);
#484=VERTEX_POINT('',#848);
#485=VERTEX_POINT('',#849);
#486=VERTEX_POINT('',#850);
#487=VERTEX_POINT('',#851);
#488=VERTEX_POINT('',#852);
#489=VERTEX_POINT('',#853);
#490=VERTEX_POINT('',#854);
#491=VERTEX_POINT('',#855);
#492=VERTEX_POINT('',#856);
#493=VERTEX_POINT('',#857);
#494=VERTEX_POINT('',#858);
#495=VERTEX_POINT('',#859);
#496=VERTEX_POINT('',#860);
#497=VERTEX_POINT('',#861);
#498=VERTEX_POINT('',#862);
#499=VERTEX_POINT('',#863);
#500=VERTEX_POINT('',#864);
#501=VERTEX_POINT('',#865);
#502=VERTEX_POINT('',#866);
#503=VERTEX_POINT('',#867);
#504=VERTEX_POINT('',#868);
#505=VERTEX_POINT('',#869);
#506=CYLINDRICAL_SURFACE('',#628,110.);
#507=CYLINDRICAL_SURFACE('',#631,2.);
#508=CYLINDRICAL_SURFACE('',#636,2.00000000000001);
#509=CYLINDRICAL_SURFACE('',#638,101.);
#510=CYLINDRICAL_SURFACE('',#639,101.);
#511=CYLINDRICAL_SURFACE('',#640,74.9999999999998);
#512=CYLINDRICAL_SURFACE('',#641,75.0000000000002);
#513=CYLINDRICAL_SURFACE('',#642,3.00000000000023);
#514=CYLINDRICAL_SURFACE('',#643,3.);
#515=CYLINDRICAL_SURFACE('',#644,3.);
#516=CYLINDRICAL_SURFACE('',#645,3.);
#517=CYLINDRICAL_SURFACE('',#646,3.00000000000023);
#518=CYLINDRICAL_SURFACE('',#647,3.00000000000023);
#519=CYLINDRICAL_SURFACE('',#648,2.99999999999977);
#520=CYLINDRICAL_SURFACE('',#649,3.00000000000045);
#521=PLANE('',#625);
#522=PLANE('',#626);
#523=PLANE('',#627);
#524=PLANE('',#629);
#525=PLANE('',#630);
#526=PLANE('',#632);
#527=PLANE('',#633);
#528=PLANE('',#634);
#529=PLANE('',#635);
#530=PLANE('',#637);
#531=PLANE('',#650);
#532=PLANE('',#651);
#533=PLANE('',#652);
#534=PLANE('',#653);
#535=PLANE('',#654);
#536=PLANE('',#655);
#537=SHAPE_DEFINITION_REPRESENTATION(#538,#623);
#538=PRODUCT_DEFINITION_SHAPE($,$,#540);
#539=PRODUCT_DEFINITION_CONTEXT('3D Mechanical Parts',#612,'design');
#540=PRODUCT_DEFINITION('A','First version',#582,#539);
#541=DATE_TIME_ROLE('classification_date');
#542=DATE_TIME_ROLE('creation_date');
#543=APPLIED_DATE_AND_TIME_ASSIGNMENT(#567,#541,(#546));
#544=APPLIED_DATE_AND_TIME_ASSIGNMENT(#569,#542,(#540));
#545=SECURITY_CLASSIFICATION_LEVEL('unclassified');
#546=SECURITY_CLASSIFICATION('A','Security for version',#545);
#547=APPLIED_SECURITY_CLASSIFICATION_ASSIGNMENT(#546,(#582));
#548=APPROVAL_ROLE('Version approval');
#549=APPROVAL_ROLE('Version Security approval');
#550=APPROVAL_ROLE('Definition approval');
#551=APPROVAL_PERSON_ORGANIZATION(#600,#576,#548);
#552=APPROVAL_PERSON_ORGANIZATION(#601,#577,#549);
#553=APPROVAL_PERSON_ORGANIZATION(#604,#578,#550);
#554=COORDINATED_UNIVERSAL_TIME_OFFSET(5,0,.BEHIND.);
#555=LOCAL_TIME(0,0,0.,#554);
#556=LOCAL_TIME(0,0,0.,#554);
#557=LOCAL_TIME(0,0,0.,#554);
#558=LOCAL_TIME(0,0,0.,#554);
#559=LOCAL_TIME(0,0,0.,#554);
#560=CALENDAR_DATE(1999,1,1);
#561=CALENDAR_DATE(1999,1,1);
#562=CALENDAR_DATE(1999,1,1);
#563=CALENDAR_DATE(1999,1,1);
#564=CALENDAR_DATE(1999,1,1);
#565=DATE_AND_TIME(#560,#555);
#566=DATE_AND_TIME(#561,#556);
#567=DATE_AND_TIME(#562,#557);
#568=DATE_AND_TIME(#563,#558);
#569=DATE_AND_TIME(#564,#559);
#570=APPROVAL_DATE_TIME(#565,#576);
#571=APPROVAL_DATE_TIME(#566,#577);
#572=APPROVAL_DATE_TIME(#568,#578);
#573=APPROVAL_STATUS('not_yet_approved');
#574=APPROVAL_STATUS('not_yet_approved');
#575=APPROVAL_STATUS('approved');
#576=APPROVAL(#573,'Version approval');
#577=APPROVAL(#574,'Version Security approval');
#578=APPROVAL(#575,'Definition approval');
#579=APPLIED_APPROVAL_ASSIGNMENT(#576,(#582));
#580=APPLIED_APPROVAL_ASSIGNMENT(#577,(#546));
#581=APPLIED_APPROVAL_ASSIGNMENT(#578,(#540));
#582=PRODUCT_DEFINITION_FORMATION_WITH_SPECIFIED_SOURCE('A',
'First version',#614,.MADE.);
#583=PERSON_AND_ORGANIZATION_ROLE('design_owner');
#584=PERSON_AND_ORGANIZATION_ROLE('creator');
#585=PERSON_AND_ORGANIZATION_ROLE('design_supplier');
#586=PERSON_AND_ORGANIZATION_ROLE('classification_officer');
#587=PERSON_AND_ORGANIZATION_ROLE('creator');
#588=ORGANIZATION('STI','lab','lab');
#589=ORGANIZATION('STI','unknown','unknown');
#590=ORGANIZATION('STI','unknown','unknown');
#591=ORGANIZATION('STI','unknown','unknown');
#592=ORGANIZATION('STI','unknown','unknown');
#593=ORGANIZATION('STI','unknown','unknown');
#594=ORGANIZATION('STI','unknown','unknown');
#595=PERSON('1','Box','vc60',$,$,$);
#596=PERSON('2','last','first',$,$,$);
#597=PERSON('3','President','Mr.',$,$,$);
#598=PERSON_AND_ORGANIZATION(#595,#588);
#599=PERSON_AND_ORGANIZATION(#596,#589);
#600=PERSON_AND_ORGANIZATION(#597,#590);
#601=PERSON_AND_ORGANIZATION(#597,#591);
#602=PERSON_AND_ORGANIZATION(#597,#592);
#603=PERSON_AND_ORGANIZATION(#596,#593);
#604=PERSON_AND_ORGANIZATION(#597,#594);
#605=APPLIED_PERSON_AND_ORGANIZATION_ASSIGNMENT(#598,#583,(#614));
#606=APPLIED_PERSON_AND_ORGANIZATION_ASSIGNMENT(#599,#584,(#582));
#607=APPLIED_PERSON_AND_ORGANIZATION_ASSIGNMENT(#599,#585,(#582));
#608=APPLIED_PERSON_AND_ORGANIZATION_ASSIGNMENT(#602,#586,(#546));
#609=APPLIED_PERSON_AND_ORGANIZATION_ASSIGNMENT(#603,#587,(#540));
#610=PRODUCT_RELATED_PRODUCT_CATEGORY('detail','detail',(#614));
#611=APPLICATION_PROTOCOL_DEFINITION('International Standard',
'config_control_design',1994,#612);
#612=APPLICATION_CONTEXT(
'configuration controlled 3d designs of mechanical parts and assemblie
s');
#613=PRODUCT_CONTEXT('3D Mechanical Parts',#612,'mechanical');
#614=PRODUCT('Document','Document','',(#613));
#615=(
LENGTH_UNIT()
NAMED_UNIT(*)
SI_UNIT(.MILLI.,.METRE.)
);
#616=(
NAMED_UNIT(*)
PLANE_ANGLE_UNIT()
SI_UNIT($,.RADIAN.)
);
#617=DIMENSIONAL_EXPONENTS(0.,0.,0.,0.,0.,0.,0.);
#618=PLANE_ANGLE_MEASURE_WITH_UNIT(PLANE_ANGLE_MEASURE(0.01745329252),#616);
#619=(
CONVERSION_BASED_UNIT('DEGREES',#618)
NAMED_UNIT(#617)
PLANE_ANGLE_UNIT()
);
#620=(
NAMED_UNIT(*)
SI_UNIT($,.STERADIAN.)
SOLID_ANGLE_UNIT()
);
#621=UNCERTAINTY_MEASURE_WITH_UNIT(LENGTH_MEASURE(0.01),#615,
'DISTANCE_ACCURACY_VALUE',
'Maximum model space distance between geometric entities at asserted c
onnectivities');
#622=(
GEOMETRIC_REPRESENTATION_CONTEXT(3)
GLOBAL_UNCERTAINTY_ASSIGNED_CONTEXT((#621))
GLOBAL_UNIT_ASSIGNED_CONTEXT((#620,#619,#615))
REPRESENTATION_CONTEXT('ID1','3D')
);
#623=SHAPE_REPRESENTATION('Document',(#624,#688),#622);
#624=AXIS2_PLACEMENT_3D($,#788,#689,#690);
#625=AXIS2_PLACEMENT_3D('',#789,#691,$);
#626=AXIS2_PLACEMENT_3D('',#790,#692,$);
#627=AXIS2_PLACEMENT_3D('',#791,#693,$);
#628=AXIS2_PLACEMENT_3D('',#792,#694,$);
#629=AXIS2_PLACEMENT_3D('',#793,#695,$);
#630=AXIS2_PLACEMENT_3D('',#794,#696,$);
#631=AXIS2_PLACEMENT_3D('',#795,#697,$);
#632=AXIS2_PLACEMENT_3D('',#796,#698,$);
#633=AXIS2_PLACEMENT_3D('',#797,#699,$);
#634=AXIS2_PLACEMENT_3D('',#798,#700,$);
#635=AXIS2_PLACEMENT_3D('',#799,#701,$);
#636=AXIS2_PLACEMENT_3D('',#800,#702,$);
#637=AXIS2_PLACEMENT_3D('',#801,#703,$);
#638=AXIS2_PLACEMENT_3D('',#802,#704,$);
#639=AXIS2_PLACEMENT_3D('',#803,#705,$);
#640=AXIS2_PLACEMENT_3D('',#804,#706,$);
#641=AXIS2_PLACEMENT_3D('',#805,#707,$);
#642=AXIS2_PLACEMENT_3D('',#806,#708,$);
#643=AXIS2_PLACEMENT_3D('',#807,#709,$);
#644=AXIS2_PLACEMENT_3D('',#808,#710,$);
#645=AXIS2_PLACEMENT_3D('',#809,#711,$);
#646=AXIS2_PLACEMENT_3D('',#810,#712,$);
#647=AXIS2_PLACEMENT_3D('',#811,#713,$);
#648=AXIS2_PLACEMENT_3D('',#812,#714,$);
#649=AXIS2_PLACEMENT_3D('',#813,#715,$);
#650=AXIS2_PLACEMENT_3D('',#814,#716,$);
#651=AXIS2_PLACEMENT_3D('',#815,#717,$);
#652=AXIS2_PLACEMENT_3D('',#816,#718,$);
#653=AXIS2_PLACEMENT_3D('',#817,#719,$);
#654=AXIS2_PLACEMENT_3D('',#818,#720,$);
#655=AXIS2_PLACEMENT_3D('',#819,#721,$);
#656=AXIS2_PLACEMENT_3D($,#882,#722,#723);
#657=AXIS2_PLACEMENT_3D($,#887,#724,#725);
#658=AXIS2_PLACEMENT_3D($,#898,#726,#727);
#659=AXIS2_PLACEMENT_3D($,#901,#728,#729);
#660=AXIS2_PLACEMENT_3D($,#904,#730,#731);
#661=AXIS2_PLACEMENT_3D($,#909,#732,#733);
#662=AXIS2_PLACEMENT_3D($,#912,#734,#735);
#663=AXIS2_PLACEMENT_3D($,#915,#736,#737);
#664=AXIS2_PLACEMENT_3D($,#920,#738,#739);
#665=AXIS2_PLACEMENT_3D($,#925,#740,#741);
#666=AXIS2_PLACEMENT_3D($,#928,#742,#743);
#667=AXIS2_PLACEMENT_3D($,#933,#744,#745);
#668=AXIS2_PLACEMENT_3D($,#936,#746,#747);
#669=AXIS2_PLACEMENT_3D($,#941,#748,#749);
#670=AXIS2_PLACEMENT_3D($,#944,#750,#751);
#671=AXIS2_PLACEMENT_3D($,#949,#752,#753);
#672=AXIS2_PLACEMENT_3D($,#952,#754,#755);
#673=AXIS2_PLACEMENT_3D($,#957,#756,#757);
#674=AXIS2_PLACEMENT_3D($,#986,#758,#759);
#675=AXIS2_PLACEMENT_3D($,#991,#760,#761);
#676=AXIS2_PLACEMENT_3D($,#1006,#762,#763);
#677=AXIS2_PLACEMENT_3D($,#1009,#764,#765);
#678=AXIS2_PLACEMENT_3D($,#1014,#766,#767);
#679=AXIS2_PLACEMENT_3D($,#1017,#768,#769);
#680=AXIS2_PLACEMENT_3D($,#1022,#770,#771);
#681=AXIS2_PLACEMENT_3D($,#1025,#772,#773);
#682=AXIS2_PLACEMENT_3D($,#1030,#774,#775);
#683=AXIS2_PLACEMENT_3D($,#1033,#776,#777);
#684=AXIS2_PLACEMENT_3D($,#1038,#778,#779);
#685=AXIS2_PLACEMENT_3D($,#1041,#780,#781);
#686=AXIS2_PLACEMENT_3D($,#1046,#782,#783);
#687=AXIS2_PLACEMENT_3D($,#1049,#784,#785);
#688=AXIS2_PLACEMENT_3D($,#1052,#786,#787);
#689=DIRECTION('',(0.,0.,1.));
#690=DIRECTION('',(1.,0.,0.));
#691=DIRECTION('',(-1.,0.,0.));
#692=DIRECTION('',(0.,-1.,0.));
#693=DIRECTION('',(0.,1.,0.));
#694=DIRECTION('',(0.,0.,1.));
#695=DIRECTION('',(0.,0.,-1.));
#696=DIRECTION('',(0.,0.,1.));
#697=DIRECTION('',(-3.57070741062916E-16,-7.17187390312839E-16,1.));
#698=DIRECTION('',(0.602716925743634,-0.797955078574065,-5.33757382351195E-16));
#699=DIRECTION('',(0.,-1.,0.));
#700=DIRECTION('',(0.,1.,0.));
#701=DIRECTION('',(0.602716925743615,0.79795507857408,3.69830133163969E-15));
#702=DIRECTION('',(0.,0.,1.));
#703=DIRECTION('',(-1.,0.,0.));
#704=DIRECTION('',(0.,0.,1.));
#705=DIRECTION('',(0.,0.,1.));
#706=DIRECTION('',(0.,0.,1.));
#707=DIRECTION('',(0.,0.,1.));
#708=DIRECTION('',(0.,0.,1.));
#709=DIRECTION('',(0.,0.,1.));
#710=DIRECTION('',(0.,0.,1.));
#711=DIRECTION('',(0.,0.,1.));
#712=DIRECTION('',(0.,0.,1.));
#713=DIRECTION('',(0.,0.,1.));
#714=DIRECTION('',(0.,0.,1.));
#715=DIRECTION('',(0.,0.,1.));
#716=DIRECTION('',(0.,0.,1.));
#717=DIRECTION('',(0.,0.,-1.));
#718=DIRECTION('',(0.,0.,-1.));
#719=DIRECTION('',(0.,0.,-1.));
#720=DIRECTION('',(0.,0.,-1.));
#721=DIRECTION('',(0.,0.,-1.));
#722=DIRECTION('',(0.,0.,1.));
#723=DIRECTION('',(1.,0.,0.));
#724=DIRECTION('',(0.,0.,1.));
#725=DIRECTION('',(1.,0.,0.));
#726=DIRECTION('',(0.,0.,1.));
#727=DIRECTION('',(-0.957089372775676,-0.28979291316363,0.));
#728=DIRECTION('',(1.6628148976029E-17,-1.12296651062484E-16,1.));
#729=DIRECTION('',(-0.957089372775676,-0.28979291316363,0.));
#730=DIRECTION('',(0.,0.,1.));
#731=DIRECTION('',(1.,0.,0.));
#732=DIRECTION('',(0.,0.,-1.));
#733=DIRECTION('',(1.,0.,0.));
#734=DIRECTION('',(0.,0.,-1.));
#735=DIRECTION('',(1.,0.,0.));
#736=DIRECTION('',(0.,0.,-1.));
#737=DIRECTION('',(1.,0.,0.));
#738=DIRECTION('',(0.,0.,1.));
#739=DIRECTION('',(-1.,0.,0.));
#740=DIRECTION('',(0.,0.,1.));
#741=DIRECTION('',(-1.,0.,0.));
#742=DIRECTION('',(0.,0.,1.));
#743=DIRECTION('',(0.,-1.,0.));
#744=DIRECTION('',(0.,0.,1.));
#745=DIRECTION('',(0.,-1.,0.));
#746=DIRECTION('',(0.,0.,1.));
#747=DIRECTION('',(1.,7.57912251477383E-14,0.));
#748=DIRECTION('',(0.,0.,1.));
#749=DIRECTION('',(1.,7.57912251477383E-14,0.));
#750=DIRECTION('',(0.,0.,1.));
#751=DIRECTION('',(7.57912251477498E-14,1.,0.));
#752=DIRECTION('',(0.,0.,1.));
#753=DIRECTION('',(7.57912251477498E-14,1.,0.));
#754=DIRECTION('',(0.,0.,1.));
#755=DIRECTION('',(1.,0.,0.));
#756=DIRECTION('',(-7.14141482125831E-16,-1.43437478062568E-15,1.));
#757=DIRECTION('',(1.,0.,8.88178419700125E-16));
#758=DIRECTION('',(0.,0.,1.));
#759=DIRECTION('',(-0.602716925743604,-0.797955078574088,0.));
#760=DIRECTION('',(0.,0.,1.));
#761=DIRECTION('',(-0.602716925743604,-0.797955078574088,0.));
#762=DIRECTION('',(0.,0.,1.));
#763=DIRECTION('',(-1.,0.,0.));
#764=DIRECTION('',(0.,0.,-1.));
#765=DIRECTION('',(-1.,-2.25122450933894E-15,0.));
#766=DIRECTION('',(0.,0.,-1.));
#767=DIRECTION('',(-1.,3.03164900590975E-15,0.));
#768=DIRECTION('',(0.,0.,-1.));
#769=DIRECTION('',(-1.,3.03164900590975E-15,0.));
#770=DIRECTION('',(0.,0.,1.));
#771=DIRECTION('',(1.,7.5791225147744E-14,0.));
#772=DIRECTION('',(0.,0.,1.));
#773=DIRECTION('',(1.,7.5791225147744E-14,0.));
#774=DIRECTION('',(0.,0.,1.));
#775=DIRECTION('',(0.,1.,0.));
#776=DIRECTION('',(0.,0.,1.));
#777=DIRECTION('',(0.,1.,0.));
#778=DIRECTION('',(0.,0.,1.));
#779=DIRECTION('',(-1.,-7.57912251477383E-14,0.));
#780=DIRECTION('',(0.,0.,1.));
#781=DIRECTION('',(-1.,-7.57912251477383E-14,0.));
#782=DIRECTION('',(0.,0.,1.));
#783=DIRECTION('',(7.57912251477325E-14,-1.,0.));
#784=DIRECTION('',(0.,0.,1.));
#785=DIRECTION('',(7.57912251477325E-14,-1.,0.));
#786=DIRECTION('',(0.,0.,1.));
#787=DIRECTION('',(1.,0.,0.));
#788=CARTESIAN_POINT('',(0.,0.,0.));
#789=CARTESIAN_POINT('',(-1663.73922165541,1644.85100456535,0.));
#790=CARTESIAN_POINT('',(-1663.73922165541,1581.09656366936,0.));
#791=CARTESIAN_POINT('',(-1639.52479458433,1644.85100456535,0.));
#792=CARTESIAN_POINT('',(-1534.45115542772,1612.97378411736,8.3));
#793=CARTESIAN_POINT('',(-1666.45115542772,1480.97378411736,0.));
#794=CARTESIAN_POINT('',(-1666.45115542772,1480.97378411736,16.6));
#795=CARTESIAN_POINT('',(-1647.44644683366,1637.73523949702,7.5));
#796=CARTESIAN_POINT('',(-1648.65188068514,1639.33114965417,0.));
#797=CARTESIAN_POINT('',(-1655.74465837809,1633.97378395669,0.));
#798=CARTESIAN_POINT('',(-1663.7392320111,1591.97378395669,0.));
#799=CARTESIAN_POINT('',(-1655.74465837809,1591.97378395669,0.));
#800=CARTESIAN_POINT('',(-1647.44644683366,1588.21232841637,7.5));
#801=CARTESIAN_POINT('',(-1645.44644683366,1588.21232841637,0.));
#802=CARTESIAN_POINT('',(-1534.45115542772,1612.97378411736,16.6));
#803=CARTESIAN_POINT('',(-1534.45115542772,1612.97378411736,16.6));
#804=CARTESIAN_POINT('',(-1534.45115542772,1612.97378411736,7.96921050554529));
#805=CARTESIAN_POINT('',(-1534.45115542772,1612.97378411736,7.96921050554529));
#806=CARTESIAN_POINT('',(-1445.00512608534,1613.03648417454,1.5));
#807=CARTESIAN_POINT('',(-1445.00512608534,1613.03648417454,1.5));
#808=CARTESIAN_POINT('',(-1534.51385548491,1702.41981345973,1.5));
#809=CARTESIAN_POINT('',(-1534.51385548491,1702.41981345973,1.5));
#810=CARTESIAN_POINT('',(-1623.8971847701,1612.91108406017,1.5));
#811=CARTESIAN_POINT('',(-1623.8971847701,1612.91108406017,1.5));
#812=CARTESIAN_POINT('',(-1534.38845537053,1523.52775477498,1.5));
#813=CARTESIAN_POINT('',(-1534.38845537053,1523.52775477498,1.5));
#814=CARTESIAN_POINT('',(-1660.70115542772,1486.72378411736,11.6));
#815=CARTESIAN_POINT('',(-1441.25512608534,1616.78648417454,3.));
#816=CARTESIAN_POINT('',(-1538.26385548491,1706.16981345973,3.));
#817=CARTESIAN_POINT('',(-1627.6471847701,1609.16108406017,3.));
#818=CARTESIAN_POINT('',(-1530.63845537053,1519.77775477498,3.));
#819=CARTESIAN_POINT('',(-1666.02583015828,1579.52196453129,15.));
#820=CARTESIAN_POINT('',(-1663.73922165541,1644.85100456535,0.));
#821=CARTESIAN_POINT('',(-1663.73922165541,1581.09656366936,0.));
#822=CARTESIAN_POINT('',(-1663.73922165541,1581.09656366936,16.6));
#823=CARTESIAN_POINT('',(-1663.73922165541,1644.85100456535,16.6));
#824=CARTESIAN_POINT('',(-1424.45115542772,1612.97378411736,0.));
#825=CARTESIAN_POINT('',(-1424.45115542772,1612.97378411736,16.6));
#826=CARTESIAN_POINT('',(-1639.73098643305,1581.09656366936,0.));
#827=CARTESIAN_POINT('',(-1639.73098643305,1581.09656366936,16.6));
#828=CARTESIAN_POINT('',(-1639.73098643305,1644.85100456535,16.6));
#829=CARTESIAN_POINT('',(-1639.73098643305,1644.85100456535,0.));
#830=CARTESIAN_POINT('',(-1433.45115542772,1612.97378411736,11.6));
#831=CARTESIAN_POINT('',(-1433.45115542772,1612.97378411736,16.6));
#832=CARTESIAN_POINT('',(-1459.45115542772,1612.97378411736,1.46044778365189E-17));
#833=CARTESIAN_POINT('',(-1459.45115542772,1612.97378411736,11.6));
#834=CARTESIAN_POINT('',(-1448.00512608534,1613.03648417454,3.));
#835=CARTESIAN_POINT('',(-1448.00512608534,1613.03648417454,0.));
#836=CARTESIAN_POINT('',(-1534.51385548491,1699.41981345973,3.));
#837=CARTESIAN_POINT('',(-1534.51385548491,1699.41981345973,0.));
#838=CARTESIAN_POINT('',(-1620.8971847701,1612.91108406017,3.));
#839=CARTESIAN_POINT('',(-1620.8971847701,1612.91108406017,0.));
#840=CARTESIAN_POINT('',(-1534.38845537053,1526.52775477498,3.));
#841=CARTESIAN_POINT('',(-1534.38845537053,1526.52775477498,0.));
#842=CARTESIAN_POINT('',(-1648.65188068514,1639.33114965417,15.));
#843=CARTESIAN_POINT('',(-1645.44644683366,1637.73523949702,15.));
#844=CARTESIAN_POINT('',(-1655.74465837809,1633.97378395669,15.));
#845=CARTESIAN_POINT('',(-1655.74465837809,1591.97378395669,15.));
#846=CARTESIAN_POINT('',(-1648.65188068514,1586.61641825922,15.));
#847=CARTESIAN_POINT('',(-1645.44644683366,1588.21232841637,15.));
#848=CARTESIAN_POINT('',(-1663.7392320111,1633.97378395669,0.));
#849=CARTESIAN_POINT('',(-1663.7392320111,1633.97378395669,15.));
#850=CARTESIAN_POINT('',(-1663.73922165541,1591.97378395669,0.));
#851=CARTESIAN_POINT('',(-1663.7392320111,1591.97378395669,15.));
#852=CARTESIAN_POINT('',(-1645.44644683366,1637.73523949702,0.));
#853=CARTESIAN_POINT('',(-1648.65188068514,1639.33114965417,0.));
#854=CARTESIAN_POINT('',(-1655.74465837809,1633.97378395669,0.));
#855=CARTESIAN_POINT('',(-1655.74465837809,1591.97378395669,0.));
#856=CARTESIAN_POINT('',(-1648.65188068514,1586.61641825922,0.));
#857=CARTESIAN_POINT('',(-1645.44644683366,1588.21232841637,0.));
#858=CARTESIAN_POINT('',(-1635.45115542772,1612.97378411736,11.6));
#859=CARTESIAN_POINT('',(-1635.45115542772,1612.97378411736,16.6));
#860=CARTESIAN_POINT('',(-1609.45115542772,1612.97378411736,2.92089556730377E-17));
#861=CARTESIAN_POINT('',(-1609.45115542772,1612.97378411736,11.6));
#862=CARTESIAN_POINT('',(-1442.00512608534,1613.03648417454,0.));
#863=CARTESIAN_POINT('',(-1442.00512608534,1613.03648417454,3.));
#864=CARTESIAN_POINT('',(-1534.51385548491,1705.41981345973,0.));
#865=CARTESIAN_POINT('',(-1534.51385548491,1705.41981345973,3.));
#866=CARTESIAN_POINT('',(-1626.8971847701,1612.91108406017,0.));
#867=CARTESIAN_POINT('',(-1626.8971847701,1612.91108406017,3.));
#868=CARTESIAN_POINT('',(-1534.38845537053,1520.52775477498,0.));
#869=CARTESIAN_POINT('',(-1534.38845537053,1520.52775477498,3.));
#870=CARTESIAN_POINT('',(-1663.73922165541,1644.85100456535,0.));
#871=CARTESIAN_POINT('',(-1663.7392320111,1633.97378395669,0.));
#872=CARTESIAN_POINT('',(-1663.73922165541,1581.09656366936,0.));
#873=CARTESIAN_POINT('',(-1663.73922165541,1581.09656366936,16.6));
#874=CARTESIAN_POINT('',(-1663.73922165541,1644.85100456535,16.6));
#875=CARTESIAN_POINT('',(-1663.73922165541,1581.09656366936,16.6));
#876=CARTESIAN_POINT('',(-1663.73922165541,1644.85100456535,0.));
#877=CARTESIAN_POINT('',(-1663.73922165541,1644.85100456535,16.6));
#878=CARTESIAN_POINT('',(-1663.73922165541,1581.09656366936,0.));
#879=CARTESIAN_POINT('',(-1639.73098643305,1581.09656366936,0.));
#880=CARTESIAN_POINT('',(-1663.73922165541,1581.09656366936,16.6));
#881=CARTESIAN_POINT('',(-1639.73098643305,1581.09656366936,16.6));
#882=CARTESIAN_POINT('',(-1534.45115542772,1612.97378411736,0.));
#883=CARTESIAN_POINT('',(-1424.45115542772,1612.97378411736,0.));
#884=CARTESIAN_POINT('',(-1639.73098643305,1644.85100456535,0.));
#885=CARTESIAN_POINT('',(-1424.45115542772,1612.97378411736,0.));
#886=CARTESIAN_POINT('',(-1424.45115542772,1612.97378411736,16.6));
#887=CARTESIAN_POINT('',(-1534.45115542772,1612.97378411736,16.6));
#888=CARTESIAN_POINT('',(-1424.45115542772,1612.97378411736,16.6));
#889=CARTESIAN_POINT('',(-1639.73098643305,1644.85100456535,16.6));
#890=CARTESIAN_POINT('',(-1639.73098643305,1581.09656366936,0.));
#891=CARTESIAN_POINT('',(-1639.73098643305,1581.09656366936,16.6));
#892=CARTESIAN_POINT('',(-1639.73098643305,1644.85100456535,16.6));
#893=CARTESIAN_POINT('',(-1639.73098643305,1644.85100456535,0.));
#894=CARTESIAN_POINT('',(-1639.73098643305,1644.85100456535,0.));
#895=CARTESIAN_POINT('',(-1663.73922165541,1644.85100456535,0.));
#896=CARTESIAN_POINT('',(-1639.73098643305,1644.85100456535,16.6));
#897=CARTESIAN_POINT('',(-1663.73922165541,1644.85100456535,16.6));
#898=CARTESIAN_POINT('',(-1534.45115542772,1612.97378411735,0.));
#899=CARTESIAN_POINT('',(-1639.73098643305,1581.09656366936,0.));
#900=CARTESIAN_POINT('',(-1424.45115542772,1612.97378411736,0.));
#901=CARTESIAN_POINT('',(-1534.45115542772,1612.97378411735,16.6));
#902=CARTESIAN_POINT('',(-1639.73098643305,1581.09656366936,16.6));
#903=CARTESIAN_POINT('',(-1424.45115542772,1612.97378411736,16.6));
#904=CARTESIAN_POINT('',(-1534.45115542772,1612.97378411736,11.6));
#905=CARTESIAN_POINT('',(-1433.45115542772,1612.97378411736,11.6));
#906=CARTESIAN_POINT('',(-1635.45115542772,1612.97378411736,11.6));
#907=CARTESIAN_POINT('',(-1433.45115542772,1612.97378411736,11.6));
#908=CARTESIAN_POINT('',(-1433.45115542772,1612.97378411736,16.6));
#909=CARTESIAN_POINT('',(-1534.45115542772,1612.97378411736,16.6));
#910=CARTESIAN_POINT('',(-1433.45115542772,1612.97378411736,16.6));
#911=CARTESIAN_POINT('',(-1635.45115542772,1612.97378411736,16.6));
#912=CARTESIAN_POINT('',(-1534.45115542772,1612.97378411736,2.92089556730377E-17));
#913=CARTESIAN_POINT('',(-1459.45115542772,1612.97378411736,2.92089556730377E-17));
#914=CARTESIAN_POINT('',(-1609.45115542772,1612.97378411736,2.92089556730377E-17));
#915=CARTESIAN_POINT('',(-1534.45115542772,1612.97378411736,11.6));
#916=CARTESIAN_POINT('',(-1459.45115542772,1612.97378411736,11.6));
#917=CARTESIAN_POINT('',(-1609.45115542772,1612.97378411736,11.6));
#918=CARTESIAN_POINT('',(-1459.45115542772,1612.97378411736,1.46044778365189E-17));
#919=CARTESIAN_POINT('',(-1459.45115542772,1612.97378411736,11.6));
#920=CARTESIAN_POINT('',(-1445.00512608534,1613.03648417454,0.));
#921=CARTESIAN_POINT('',(-1448.00512608534,1613.03648417454,0.));
#922=CARTESIAN_POINT('',(-1442.00512608534,1613.03648417454,0.));
#923=CARTESIAN_POINT('',(-1448.00512608534,1613.03648417454,0.));
#924=CARTESIAN_POINT('',(-1448.00512608534,1613.03648417454,3.));
#925=CARTESIAN_POINT('',(-1445.00512608534,1613.03648417454,3.));
#926=CARTESIAN_POINT('',(-1448.00512608534,1613.03648417454,3.));
#927=CARTESIAN_POINT('',(-1442.00512608534,1613.03648417454,3.));
#928=CARTESIAN_POINT('',(-1534.51385548491,1702.41981345973,0.));
#929=CARTESIAN_POINT('',(-1534.51385548491,1699.41981345973,0.));
#930=CARTESIAN_POINT('',(-1534.51385548491,1705.41981345973,0.));
#931=CARTESIAN_POINT('',(-1534.51385548491,1699.41981345973,0.));
#932=CARTESIAN_POINT('',(-1534.51385548491,1699.41981345973,3.));
#933=CARTESIAN_POINT('',(-1534.51385548491,1702.41981345973,3.));
#934=CARTESIAN_POINT('',(-1534.51385548491,1699.41981345973,3.));
#935=CARTESIAN_POINT('',(-1534.51385548491,1705.41981345973,3.));
#936=CARTESIAN_POINT('',(-1623.8971847701,1612.91108406017,0.));
#937=CARTESIAN_POINT('',(-1620.8971847701,1612.91108406017,0.));
#938=CARTESIAN_POINT('',(-1626.8971847701,1612.91108406017,0.));
#939=CARTESIAN_POINT('',(-1620.8971847701,1612.91108406017,0.));
#940=CARTESIAN_POINT('',(-1620.8971847701,1612.91108406017,3.));
#941=CARTESIAN_POINT('',(-1623.8971847701,1612.91108406017,3.));
#942=CARTESIAN_POINT('',(-1620.8971847701,1612.91108406017,3.));
#943=CARTESIAN_POINT('',(-1626.8971847701,1612.91108406017,3.));
#944=CARTESIAN_POINT('',(-1534.38845537053,1523.52775477498,0.));
#945=CARTESIAN_POINT('',(-1534.38845537053,1526.52775477498,0.));
#946=CARTESIAN_POINT('',(-1534.38845537053,1520.52775477498,0.));
#947=CARTESIAN_POINT('',(-1534.38845537053,1526.52775477498,0.));
#948=CARTESIAN_POINT('',(-1534.38845537053,1526.52775477498,3.));
#949=CARTESIAN_POINT('',(-1534.38845537053,1523.52775477498,3.));
#950=CARTESIAN_POINT('',(-1534.38845537053,1526.52775477498,3.));
#951=CARTESIAN_POINT('',(-1534.38845537053,1520.52775477498,3.));
#952=CARTESIAN_POINT('',(-1647.44644683366,1637.73523949702,0.));
#953=CARTESIAN_POINT('',(-1645.44644683366,1637.73523949702,0.));
#954=CARTESIAN_POINT('',(-1648.65188068514,1639.33114965417,0.));
#955=CARTESIAN_POINT('',(-1648.65188068514,1639.33114965417,0.));
#956=CARTESIAN_POINT('',(-1648.65188068514,1639.33114965417,15.));
#957=CARTESIAN_POINT('',(-1647.44644683366,1637.73523949702,15.));
#958=CARTESIAN_POINT('',(-1645.44644683366,1637.73523949702,15.));
#959=CARTESIAN_POINT('',(-1648.65188068514,1639.33114965417,15.));
#960=CARTESIAN_POINT('',(-1645.44644683366,1637.73523949702,0.));
#961=CARTESIAN_POINT('',(-1645.44644683366,1637.73523949702,15.));
#962=CARTESIAN_POINT('',(-1648.65188068514,1639.33114965417,0.));
#963=CARTESIAN_POINT('',(-1655.74465837809,1633.97378395669,0.));
#964=CARTESIAN_POINT('',(-1655.74465837809,1633.97378395669,0.));
#965=CARTESIAN_POINT('',(-1655.74465837809,1633.97378395669,15.));
#966=CARTESIAN_POINT('',(-1648.65188068514,1639.33114965417,15.));
#967=CARTESIAN_POINT('',(-1655.74465837809,1633.97378395669,15.));
#968=CARTESIAN_POINT('',(-1663.7392320111,1633.97378395669,0.));
#969=CARTESIAN_POINT('',(-1663.7392320111,1633.97378395669,15.));
#970=CARTESIAN_POINT('',(-1655.74465837809,1633.97378395669,15.));
#971=CARTESIAN_POINT('',(-1663.7392320111,1633.97378395669,15.));
#972=CARTESIAN_POINT('',(-1663.73922165541,1591.97378395669,0.));
#973=CARTESIAN_POINT('',(-1663.7392320111,1591.97378395669,15.));
#974=CARTESIAN_POINT('',(-1663.7392320111,1633.97378395669,15.));
#975=CARTESIAN_POINT('',(-1663.7392320111,1591.97378395669,15.));
#976=CARTESIAN_POINT('',(-1655.74465837809,1591.97378395669,0.));
#977=CARTESIAN_POINT('',(-1655.74465837809,1591.97378395669,15.));
#978=CARTESIAN_POINT('',(-1663.7392320111,1591.97378395669,15.));
#979=CARTESIAN_POINT('',(-1655.74465837809,1591.97378395669,15.));
#980=CARTESIAN_POINT('',(-1655.74465837809,1591.97378395669,0.));
#981=CARTESIAN_POINT('',(-1648.65188068514,1586.61641825922,0.));
#982=CARTESIAN_POINT('',(-1648.65188068514,1586.61641825922,0.));
#983=CARTESIAN_POINT('',(-1648.65188068514,1586.61641825922,15.));
#984=CARTESIAN_POINT('',(-1655.74465837809,1591.97378395669,15.));
#985=CARTESIAN_POINT('',(-1648.65188068514,1586.61641825922,15.));
#986=CARTESIAN_POINT('',(-1647.44644683366,1588.21232841637,0.));
#987=CARTESIAN_POINT('',(-1648.65188068514,1586.61641825922,0.));
#988=CARTESIAN_POINT('',(-1645.44644683366,1588.21232841637,0.));
#989=CARTESIAN_POINT('',(-1645.44644683366,1588.21232841637,0.));
#990=CARTESIAN_POINT('',(-1645.44644683366,1588.21232841637,15.));
#991=CARTESIAN_POINT('',(-1647.44644683366,1588.21232841637,15.));
#992=CARTESIAN_POINT('',(-1648.65188068514,1586.61641825922,15.));
#993=CARTESIAN_POINT('',(-1645.44644683366,1588.21232841637,15.));
#994=CARTESIAN_POINT('',(-1645.44644683366,1588.21232841637,15.));
#995=CARTESIAN_POINT('',(-1645.44644683366,1637.73523949702,15.));
#996=CARTESIAN_POINT('',(-1655.74465837809,1633.97378395669,0.));
#997=CARTESIAN_POINT('',(-1663.7392320111,1633.97378395669,0.));
#998=CARTESIAN_POINT('',(-1663.73922165541,1591.97378395669,0.));
#999=CARTESIAN_POINT('',(-1655.74465837809,1591.97378395669,0.));
#1000=CARTESIAN_POINT('',(-1645.44644683366,1588.21232841637,0.));
#1001=CARTESIAN_POINT('',(-1645.44644683366,1637.73523949702,0.));
#1002=CARTESIAN_POINT('',(-1663.73922165541,1591.97378395669,0.));
#1003=CARTESIAN_POINT('',(-1663.73922165541,1581.09656366936,0.));
#1004=CARTESIAN_POINT('',(-1635.45115542772,1612.97378411736,11.6));
#1005=CARTESIAN_POINT('',(-1635.45115542772,1612.97378411736,16.6));
#1006=CARTESIAN_POINT('',(-1534.45115542772,1612.97378411736,11.6));
#1007=CARTESIAN_POINT('',(-1635.45115542772,1612.97378411736,11.6));
#1008=CARTESIAN_POINT('',(-1433.45115542772,1612.97378411736,11.6));
#1009=CARTESIAN_POINT('',(-1534.45115542772,1612.97378411736,16.6));
#1010=CARTESIAN_POINT('',(-1635.45115542772,1612.97378411736,16.6));
#1011=CARTESIAN_POINT('',(-1433.45115542772,1612.97378411736,16.6));
#1012=CARTESIAN_POINT('',(-1609.45115542772,1612.97378411736,-8.58969464027088E-16));
#1013=CARTESIAN_POINT('',(-1609.45115542772,1612.97378411736,11.6));
#1014=CARTESIAN_POINT('',(-1534.45115542772,1612.97378411735,2.92089556730377E-17));
#1015=CARTESIAN_POINT('',(-1609.45115542772,1612.97378411736,2.92089556730377E-17));
#1016=CARTESIAN_POINT('',(-1459.45115542772,1612.97378411736,2.92089556730377E-17));
#1017=CARTESIAN_POINT('',(-1534.45115542772,1612.97378411735,11.6));
#1018=CARTESIAN_POINT('',(-1609.45115542772,1612.97378411736,11.6));
#1019=CARTESIAN_POINT('',(-1459.45115542772,1612.97378411736,11.6));
#1020=CARTESIAN_POINT('',(-1442.00512608534,1613.03648417454,0.));
#1021=CARTESIAN_POINT('',(-1442.00512608534,1613.03648417454,3.));
#1022=CARTESIAN_POINT('',(-1445.00512608534,1613.03648417454,0.));
#1023=CARTESIAN_POINT('',(-1442.00512608534,1613.03648417454,0.));
#1024=CARTESIAN_POINT('',(-1448.00512608534,1613.03648417454,0.));
#1025=CARTESIAN_POINT('',(-1445.00512608534,1613.03648417454,3.));
#1026=CARTESIAN_POINT('',(-1442.00512608534,1613.03648417454,3.));
#1027=CARTESIAN_POINT('',(-1448.00512608534,1613.03648417454,3.));
#1028=CARTESIAN_POINT('',(-1534.51385548491,1705.41981345973,0.));
#1029=CARTESIAN_POINT('',(-1534.51385548491,1705.41981345973,3.));
#1030=CARTESIAN_POINT('',(-1534.51385548491,1702.41981345973,0.));
#1031=CARTESIAN_POINT('',(-1534.51385548491,1705.41981345973,0.));
#1032=CARTESIAN_POINT('',(-1534.51385548491,1699.41981345973,0.));
#1033=CARTESIAN_POINT('',(-1534.51385548491,1702.41981345973,3.));
#1034=CARTESIAN_POINT('',(-1534.51385548491,1705.41981345973,3.));
#1035=CARTESIAN_POINT('',(-1534.51385548491,1699.41981345973,3.));
#1036=CARTESIAN_POINT('',(-1626.8971847701,1612.91108406017,0.));
#1037=CARTESIAN_POINT('',(-1626.8971847701,1612.91108406017,3.));
#1038=CARTESIAN_POINT('',(-1623.8971847701,1612.91108406017,0.));
#1039=CARTESIAN_POINT('',(-1626.8971847701,1612.91108406017,0.));
#1040=CARTESIAN_POINT('',(-1620.8971847701,1612.91108406017,0.));
#1041=CARTESIAN_POINT('',(-1623.8971847701,1612.91108406017,3.));
#1042=CARTESIAN_POINT('',(-1626.8971847701,1612.91108406017,3.));
#1043=CARTESIAN_POINT('',(-1620.8971847701,1612.91108406017,3.));
#1044=CARTESIAN_POINT('',(-1534.38845537053,1520.52775477498,0.));
#1045=CARTESIAN_POINT('',(-1534.38845537053,1520.52775477498,3.));
#1046=CARTESIAN_POINT('',(-1534.38845537053,1523.52775477498,0.));
#1047=CARTESIAN_POINT('',(-1534.38845537053,1520.52775477498,0.));
#1048=CARTESIAN_POINT('',(-1534.38845537053,1526.52775477498,0.));
#1049=CARTESIAN_POINT('',(-1534.38845537053,1523.52775477498,3.));
#1050=CARTESIAN_POINT('',(-1534.38845537053,1520.52775477498,3.));
#1051=CARTESIAN_POINT('',(-1534.38845537053,1526.52775477498,3.));
#1052=CARTESIAN_POINT('',(0.,0.,0.));
ENDSEC;
END-ISO-10303-21;
